  0
SECTION
  2
HEADER
  9
$ACADVER
  1
AC1024
  9
$ACADMAINTVER
 70
6
  9
$DWGCODEPAGE
  3
ANSI_1252
  9
$LASTSAVEDBY
  1
ezdxf
  9
$INSBASE
 10
0.0
 20
0.0
 30
0.0
  9
$EXTMIN
 10
1e+20
 20
1e+20
 30
1e+20
  9
$EXTMAX
 10
-1e+20
 20
-1e+20
 30
-1e+20
  9
$LIMMIN
 10
0.0
 20
0.0
  9
$LIMMAX
 10
420.0
 20
297.0
  9
$ORTHOMODE
 70
0
  9
$REGENMODE
 70
1
  9
$FILLMODE
 70
1
  9
$QTEXTMODE
 70
0
  9
$MIRRTEXT
 70
1
  9
$LTSCALE
 40
1.0
  9
$ATTMODE
 70
1
  9
$TEXTSIZE
 40
2.5
  9
$TRACEWID
 40
1.0
  9
$TEXTSTYLE
  7
Standard
  9
$CLAYER
  8
0
  9
$CELTYPE
  6
ByLayer
  9
$CECOLOR
 62
256
  9
$CELTSCALE
 40
1.0
  9
$DISPSILH
 70
0
  9
$DIMSCALE
 40
1.0
  9
$DIMASZ
 40
2.5
  9
$DIMEXO
 40
0.625
  9
$DIMDLI
 40
3.75
  9
$DIMRND
 40
0.0
  9
$DIMDLE
 40
0.0
  9
$DIMEXE
 40
1.25
  9
$DIMTP
 40
0.0
  9
$DIMTM
 40
0.0
  9
$DIMTXT
 40
2.5
  9
$DIMCEN
 40
2.5
  9
$DIMTSZ
 40
0.0
  9
$DIMTOL
 70
0
  9
$DIMLIM
 70
0
  9
$DIMTIH
 70
0
  9
$DIMTOH
 70
0
  9
$DIMSE1
 70
0
  9
$DIMSE2
 70
0
  9
$DIMTAD
 70
1
  9
$DIMZIN
 70
8
  9
$DIMBLK
  1

  9
$DIMASO
 70
1
  9
$DIMSHO
 70
1
  9
$DIMPOST
  1

  9
$DIMAPOST
  1

  9
$DIMALT
 70
0
  9
$DIMALTD
 70
3
  9
$DIMALTF
 40
0.03937007874
  9
$DIMLFAC
 40
1.0
  9
$DIMTOFL
 70
1
  9
$DIMTVP
 40
0.0
  9
$DIMTIX
 70
0
  9
$DIMSOXD
 70
0
  9
$DIMSAH
 70
0
  9
$DIMBLK1
  1

  9
$DIMBLK2
  1

  9
$DIMSTYLE
  2
ISO-25
  9
$DIMCLRD
 70
0
  9
$DIMCLRE
 70
0
  9
$DIMCLRT
 70
0
  9
$DIMTFAC
 40
1.0
  9
$DIMGAP
 40
0.625
  9
$DIMJUST
 70
0
  9
$DIMSD1
 70
0
  9
$DIMSD2
 70
0
  9
$DIMTOLJ
 70
0
  9
$DIMTZIN
 70
8
  9
$DIMALTZ
 70
0
  9
$DIMALTTZ
 70
0
  9
$DIMUPT
 70
0
  9
$DIMDEC
 70
2
  9
$DIMTDEC
 70
2
  9
$DIMALTU
 70
2
  9
$DIMALTTD
 70
3
  9
$DIMTXSTY
  7
Standard
  9
$DIMAUNIT
 70
0
  9
$DIMADEC
 70
0
  9
$DIMALTRND
 40
0.0
  9
$DIMAZIN
 70
0
  9
$DIMDSEP
 70
44
  9
$DIMATFIT
 70
3
  9
$DIMFRAC
 70
0
  9
$DIMLDRBLK
  1

  9
$DIMLUNIT
 70
2
  9
$DIMLWD
 70
-2
  9
$DIMLWE
 70
-2
  9
$DIMTMOVE
 70
0
  9
$DIMFXL
 40
1.0
  9
$DIMFXLON
 70
0
  9
$DIMJOGANG
 40
0.785398163397
  9
$DIMTFILL
 70
0
  9
$DIMTFILLCLR
 70
0
  9
$DIMARCSYM
 70
0
  9
$DIMLTYPE
  6

  9
$DIMLTEX1
  6

  9
$DIMLTEX2
  6

  9
$DIMTXTDIRECTION
 70
0
  9
$LUNITS
 70
2
  9
$LUPREC
 70
4
  9
$SKETCHINC
 40
1.0
  9
$FILLETRAD
 40
10.0
  9
$AUNITS
 70
0
  9
$AUPREC
 70
2
  9
$MENU
  1
.
  9
$ELEVATION
 40
0.0
  9
$PELEVATION
 40
0.0
  9
$THICKNESS
 40
0.0
  9
$LIMCHECK
 70
0
  9
$CHAMFERA
 40
0.0
  9
$CHAMFERB
 40
0.0
  9
$CHAMFERC
 40
0.0
  9
$CHAMFERD
 40
0.0
  9
$SKPOLY
 70
0
  9
$TDCREATE
 40
2461285.1367013888
  9
$TDUCREATE
 40
2458532.153996898
  9
$TDUPDATE
 40
2461285.1367013888
  9
$TDUUPDATE
 40
2458532.1544311
  9
$TDINDWG
 40
0.0
  9
$TDUSRTIMER
 40
0.0
  9
$USRTIMER
 70
1
  9
$ANGBASE
 50
0.0
  9
$ANGDIR
 70
0
  9
$PDMODE
 70
0
  9
$PDSIZE
 40
0.0
  9
$PLINEWID
 40
0.0
  9
$SPLFRAME
 70
0
  9
$SPLINETYPE
 70
6
  9
$SPLINESEGS
 70
8
  9
$HANDSEED
  5
33
  9
$SURFTAB1
 70
6
  9
$SURFTAB2
 70
6
  9
$SURFTYPE
 70
6
  9
$SURFU
 70
6
  9
$SURFV
 70
6
  9
$UCSBASE
  2

  9
$UCSNAME
  2

  9
$UCSORG
 10
0.0
 20
0.0
 30
0.0
  9
$UCSXDIR
 10
1.0
 20
0.0
 30
0.0
  9
$UCSYDIR
 10
0.0
 20
1.0
 30
0.0
  9
$UCSORTHOREF
  2

  9
$UCSORTHOVIEW
 70
0
  9
$UCSORGTOP
 10
0.0
 20
0.0
 30
0.0
  9
$UCSORGBOTTOM
 10
0.0
 20
0.0
 30
0.0
  9
$UCSORGLEFT
 10
0.0
 20
0.0
 30
0.0
  9
$UCSORGRIGHT
 10
0.0
 20
0.0
 30
0.0
  9
$UCSORGFRONT
 10
0.0
 20
0.0
 30
0.0
  9
$UCSORGBACK
 10
0.0
 20
0.0
 30
0.0
  9
$PUCSBASE
  2

  9
$PUCSNAME
  2

  9
$PUCSORG
 10
0.0
 20
0.0
 30
0.0
  9
$PUCSXDIR
 10
1.0
 20
0.0
 30
0.0
  9
$PUCSYDIR
 10
0.0
 20
1.0
 30
0.0
  9
$PUCSORTHOREF
  2

  9
$PUCSORTHOVIEW
 70
0
  9
$PUCSORGTOP
 10
0.0
 20
0.0
 30
0.0
  9
$PUCSORGBOTTOM
 10
0.0
 20
0.0
 30
0.0
  9
$PUCSORGLEFT
 10
0.0
 20
0.0
 30
0.0
  9
$PUCSORGRIGHT
 10
0.0
 20
0.0
 30
0.0
  9
$PUCSORGFRONT
 10
0.0
 20
0.0
 30
0.0
  9
$PUCSORGBACK
 10
0.0
 20
0.0
 30
0.0
  9
$USERI1
 70
0
  9
$USERI2
 70
0
  9
$USERI3
 70
0
  9
$USERI4
 70
0
  9
$USERI5
 70
0
  9
$USERR1
 40
0.0
  9
$USERR2
 40
0.0
  9
$USERR3
 40
0.0
  9
$USERR4
 40
0.0
  9
$USERR5
 40
0.0
  9
$WORLDVIEW
 70
1
  9
$SHADEDGE
 70
3
  9
$SHADEDIF
 70
70
  9
$TILEMODE
 70
1
  9
$MAXACTVP
 70
64
  9
$PINSBASE
 10
0.0
 20
0.0
 30
0.0
  9
$PLIMCHECK
 70
0
  9
$PEXTMIN
 10
1e+20
 20
1e+20
 30
1e+20
  9
$PEXTMAX
 10
-1e+20
 20
-1e+20
 30
-1e+20
  9
$PLIMMIN
 10
0.0
 20
0.0
  9
$PLIMMAX
 10
420.0
 20
297.0
  9
$UNITMODE
 70
0
  9
$VISRETAIN
 70
1
  9
$PLINEGEN
 70
0
  9
$PSLTSCALE
 70
1
  9
$TREEDEPTH
 70
3020
  9
$CMLSTYLE
  2
Standard
  9
$CMLJUST
 70
0
  9
$CMLSCALE
 40
20.0
  9
$PROXYGRAPHICS
 70
1
  9
$MEASUREMENT
 70
1
  9
$CELWEIGHT
370
-1
  9
$ENDCAPS
280
0
  9
$JOINSTYLE
280
0
  9
$LWDISPLAY
290
0
  9
$INSUNITS
 70
6
  9
$HYPERLINKBASE
  1

  9
$STYLESHEET
  1

  9
$XEDIT
290
1
  9
$CEPSNTYPE
380
0
  9
$PSTYLEMODE
290
1
  9
$FINGERPRINTGUID
  2
{E6D276E5-168F-4639-845A-1A604CCBD3BB}
  9
$VERSIONGUID
  2
{C02DB0A5-5F94-4125-AD6F-EF190C96E688}
  9
$EXTNAMES
290
1
  9
$PSVPSCALE
 40
0.0
  9
$OLESTARTUP
290
0
  9
$SORTENTS
280
127
  9
$INDEXCTL
280
0
  9
$HIDETEXT
280
1
  9
$XCLIPFRAME
280
1
  9
$HALOGAP
280
0
  9
$OBSCOLOR
 70
257
  9
$OBSLTYPE
280
0
  9
$INTERSECTIONDISPLAY
280
0
  9
$INTERSECTIONCOLOR
 70
257
  9
$DIMASSOC
280
2
  9
$PROJECTNAME
  1

  9
$CAMERADISPLAY
290
0
  9
$LENSLENGTH
 40
50.0
  9
$CAMERAHEIGHT
 40
0.0
  9
$STEPSPERSEC
 40
24.0
  9
$STEPSIZE
 40
100.0
  9
$3DDWFPREC
 40
2.0
  9
$PSOLWIDTH
 40
0.005
  9
$PSOLHEIGHT
 40
0.08
  9
$LOFTANG1
 40
1.570796326795
  9
$LOFTANG2
 40
1.570796326795
  9
$LOFTMAG1
 40
0.0
  9
$LOFTMAG2
 40
0.0
  9
$LOFTPARAM
 70
7
  9
$LOFTNORMALS
280
1
  9
$LATITUDE
 40
37.795
  9
$LONGITUDE
 40
-122.394
  9
$NORTHDIRECTION
 40
0.0
  9
$TIMEZONE
 70
-8000
  9
$LIGHTGLYPHDISPLAY
280
1
  9
$TILEMODELIGHTSYNCH
280
1
  9
$CMATERIAL
347
20
  9
$SOLIDHIST
280
0
  9
$SHOWHIST
280
1
  9
$DWFFRAME
280
2
  9
$DGNFRAME
280
2
  9
$REALWORLDSCALE
290
1
  9
$INTERFERECOLOR
 62
256
  9
$CSHADOW
280
0
  9
$SHADOWPLANELOCATION
 40
0.0
  0
ENDSEC
  0
SECTION
  2
CLASSES
  0
CLASS
  1
ACDBDICTIONARYWDFLT
  2
AcDbDictionaryWithDefault
  3
ObjectDBX Classes
 90
0
 91
0
280
0
281
0
  0
CLASS
  1
SUN
  2
AcDbSun
  3
SCENEOE
 90
1153
 91
0
280
0
281
0
  0
CLASS
  1
VISUALSTYLE
  2
AcDbVisualStyle
  3
ObjectDBX Classes
 90
4095
 91
0
280
0
281
0
  0
CLASS
  1
MATERIAL
  2
AcDbMaterial
  3
ObjectDBX Classes
 90
1153
 91
0
280
0
281
0
  0
CLASS
  1
SCALE
  2
AcDbScale
  3
ObjectDBX Classes
 90
1153
 91
0
280
0
281
0
  0
CLASS
  1
TABLESTYLE
  2
AcDbTableStyle
  3
ObjectDBX Classes
 90
4095
 91
0
280
0
281
0
  0
CLASS
  1
MLEADERSTYLE
  2
AcDbMLeaderStyle
  3
ACDB_MLEADERSTYLE_CLASS
 90
4095
 91
0
280
0
281
0
  0
CLASS
  1
DICTIONARYVAR
  2
AcDbDictionaryVar
  3
ObjectDBX Classes
 90
0
 91
0
280
0
281
0
  0
CLASS
  1
CELLSTYLEMAP
  2
AcDbCellStyleMap
  3
ObjectDBX Classes
 90
1152
 91
0
280
0
281
0
  0
CLASS
  1
MENTALRAYRENDERSETTINGS
  2
AcDbMentalRayRenderSettings
  3
SCENEOE
 90
1024
 91
0
280
0
281
0
  0
CLASS
  1
ACDBDETAILVIEWSTYLE
  2
AcDbDetailViewStyle
  3
ObjectDBX Classes
 90
1025
 91
0
280
0
281
0
  0
CLASS
  1
ACDBSECTIONVIEWSTYLE
  2
AcDbSectionViewStyle
  3
ObjectDBX Classes
 90
1025
 91
0
280
0
281
0
  0
CLASS
  1
RASTERVARIABLES
  2
AcDbRasterVariables
  3
ISM
 90
0
 91
0
280
0
281
0
  0
CLASS
  1
ACDBPLACEHOLDER
  2
AcDbPlaceHolder
  3
ObjectDBX Classes
 90
0
 91
0
280
0
281
0
  0
CLASS
  1
LAYOUT
  2
AcDbLayout
  3
ObjectDBX Classes
 90
0
 91
0
280
0
281
0
  0
ENDSEC
  0
SECTION
  2
TABLES
  0
TABLE
  2
VPORT
  5
8
330
0
100
AcDbSymbolTable
 70
1
  0
VPORT
  5
23
330
8
100
AcDbSymbolTableRecord
100
AcDbViewportTableRecord
  2
*Active
 70
0
 10
0.0
 20
0.0
 11
1.0
 21
1.0
 12
0.0
 22
0.0
 13
0.0
 23
0.0
 14
0.5
 24
0.5
 15
0.5
 25
0.5
 16
0.0
 26
0.0
 36
1.0
 17
0.0
 27
0.0
 37
0.0
 40
1000.0
 41
1.34
 42
50.0
 43
0.0
 44
0.0
 50
0.0
 51
0.0
 71
0
 72
1000
 73
1
 74
3
 75
0
 76
0
 77
0
 78
0
281
0
 65
0
146
0.0
  0
ENDTAB
  0
TABLE
  2
LTYPE
  5
2
330
0
100
AcDbSymbolTable
 70
3
  0
LTYPE
  5
24
330
2
100
AcDbSymbolTableRecord
100
AcDbLinetypeTableRecord
  2
ByBlock
 70
0
  3

 72
65
 73
0
 40
0.0
  0
LTYPE
  5
25
330
2
100
AcDbSymbolTableRecord
100
AcDbLinetypeTableRecord
  2
ByLayer
 70
0
  3

 72
65
 73
0
 40
0.0
  0
LTYPE
  5
26
330
2
100
AcDbSymbolTableRecord
100
AcDbLinetypeTableRecord
  2
Continuous
 70
0
  3

 72
65
 73
0
 40
0.0
  0
ENDTAB
  0
TABLE
  2
LAYER
  5
1
330
0
100
AcDbSymbolTable
 70
2
  0
LAYER
  5
27
330
1
100
AcDbSymbolTableRecord
100
AcDbLayerTableRecord
  2
0
 70
0
 62
7
  6
Continuous
370
-3
390
13
347
21
  0
LAYER
  5
28
330
1
100
AcDbSymbolTableRecord
100
AcDbLayerTableRecord
  2
Defpoints
 70
0
 62
7
  6
Continuous
290
0
370
-3
390
13
347
21
  0
ENDTAB
  0
TABLE
  2
STYLE
  5
5
330
0
100
AcDbSymbolTable
 70
1
  0
STYLE
  5
29
330
5
100
AcDbSymbolTableRecord
100
AcDbTextStyleTableRecord
  2
Standard
 70
0
 40
0.0
 41
1.0
 50
0.0
 71
0
 42
2.5
  3
txt
  4

  0
ENDTAB
  0
TABLE
  2
VIEW
  5
7
330
0
100
AcDbSymbolTable
 70
0
  0
ENDTAB
  0
TABLE
  2
UCS
  5
6
330
0
100
AcDbSymbolTable
 70
0
  0
ENDTAB
  0
TABLE
  2
APPID
  5
3
330
0
100
AcDbSymbolTable
 70
3
  0
APPID
  5
2A
330
3
100
AcDbSymbolTableRecord
100
AcDbRegAppTableRecord
  2
ACAD
 70
0
  0
APPID
  5
30
330
3
100
AcDbSymbolTableRecord
100
AcDbRegAppTableRecord
  2
HATCHBACKGROUNDCOLOR
 70
0
  0
APPID
  5
31
330
3
100
AcDbSymbolTableRecord
100
AcDbRegAppTableRecord
  2
EZDXF
 70
0
  0
ENDTAB
  0
TABLE
  2
DIMSTYLE
  5
4
330
0
100
AcDbSymbolTable
 70
1
100
AcDbDimStyleTable
  0
DIMSTYLE
105
2B
330
4
100
AcDbSymbolTableRecord
100
AcDbDimStyleTableRecord
  2
Standard
 70
0
 40
1.0
 41
2.5
 42
0.625
 43
3.75
 44
1.25
 45
0.0
 46
0.0
 47
0.0
 48
0.0
 49
2.5
140
2.5
141
2.5
142
0.0
143
0.03937007874
144
1.0
145
0.0
146
1.0
147
0.625
148
0.0
 69
0
 70
0
 71
0
 72
0
 73
0
 74
0
 75
0
 76
0
 77
1
 78
8
 79
3
170
0
171
3
172
1
173
0
174
0
175
0
176
0
177
0
178
0
179
2
271
2
272
2
273
2
274
3
275
0
276
0
277
2
278
44
279
0
280
0
281
0
282
0
283
0
284
8
285
0
286
0
288
0
289
3
290
0
371
-2
372
-2
  0
ENDTAB
  0
TABLE
  2
BLOCK_RECORD
  5
9
330
0
100
AcDbSymbolTable
 70
2
  0
BLOCK_RECORD
  5
17
330
9
100
AcDbSymbolTableRecord
100
AcDbBlockTableRecord
  2
*Model_Space
340
1A
 70
0
280
1
281
0
  0
BLOCK_RECORD
  5
1B
330
9
100
AcDbSymbolTableRecord
100
AcDbBlockTableRecord
  2
*Paper_Space
340
1E
 70
0
280
1
281
0
  0
ENDTAB
  0
ENDSEC
  0
SECTION
  2
BLOCKS
  0
BLOCK
  5
18
330
17
100
AcDbEntity
  8
0
100
AcDbBlockBegin
  2
*Model_Space
 70
0
 10
0.0
 20
0.0
 30
0.0
  3
*Model_Space
  1

  0
ENDBLK
  5
19
330
17
100
AcDbEntity
  8
0
100
AcDbBlockEnd
  0
BLOCK
  5
1C
330
1B
100
AcDbEntity
  8
0
100
AcDbBlockBegin
  2
*Paper_Space
 70
0
 10
0.0
 20
0.0
 30
0.0
  3
*Paper_Space
  1

  0
ENDBLK
  5
1D
330
1B
100
AcDbEntity
  8
0
100
AcDbBlockEnd
  0
ENDSEC
  0
SECTION
  2
ENTITIES
  0
LWPOLYLINE
  5
2F
330
17
100
AcDbEntity
  8
PAREDES
100
AcDbPolyline
 90
401
 70
1
 10
-0.6000000000000001
 20
1.5
 10
-0.5543478260869567
 20
1.5
 10
-0.5086956521739131
 20
1.5
 10
-0.46304347826086967
 20
1.5
 10
-0.4173913043478262
 20
1.5
 10
-0.3717391304347827
 20
1.5
 10
-0.3260869565217392
 20
1.5
 10
-0.2804347826086957
 20
1.5
 10
-0.23478260869565226
 20
1.5
 10
-0.18913043478260883
 20
1.5
 10
-0.14347826086956528
 20
1.5
 10
-0.09782608695652184
 20
1.5
 10
-0.05217391304347829
 20
1.5
 10
-0.006521739130434856
 20
1.5
 10
0.03913043478260869
 20
1.5
 10
0.08478260869565213
 20
1.5
 10
0.13043478260869557
 20
1.5
 10
0.176086956521739
 20
1.5
 10
0.22173913043478244
 20
1.5
 10
0.267391304347826
 20
1.5
 10
0.31304347826086953
 20
1.5
 10
0.35869565217391297
 20
1.5
 10
0.4043478260869564
 20
1.5
 10
0.44999999999999996
 20
1.5
 10
0.4956521739130435
 20
1.5
 10
0.5413043478260868
 20
1.5
 10
0.5869565217391304
 20
1.5
 10
0.6326086956521737
 20
1.5
 10
0.6782608695652175
 20
1.5
 10
0.7239130434782608
 20
1.5
 10
0.7695652173913043
 20
1.5
 10
0.8152173913043479
 20
1.5
 10
0.8608695652173912
 20
1.5
 10
0.9065217391304348
 20
1.5
 10
0.9521739130434781
 20
1.5
 10
0.9978260869565216
 20
1.5
 10
1.043478260869565
 20
1.5
 10
1.0891304347826087
 20
1.5
 10
1.134782608695652
 20
1.5
 10
1.1804347826086956
 20
1.5
 10
1.2260869565217392
 20
1.5
 10
1.2717391304347825
 20
1.5
 10
1.317391304347826
 20
1.5
 10
1.3630434782608694
 20
1.5
 10
1.408695652173913
 20
1.5
 10
1.4543478260869565
 20
1.5
 10
1.5
 20
1.5
 10
1.5
 20
1.4545454545454546
 10
1.5
 20
1.4090909090909092
 10
1.5
 20
1.3636363636363638
 10
1.5
 20
1.3181818181818181
 10
1.5
 20
1.2727272727272727
 10
1.5
 20
1.2272727272727273
 10
1.5
 20
1.1818181818181819
 10
1.5
 20
1.1363636363636362
 10
1.5
 20
1.0909090909090908
 10
1.5
 20
1.0454545454545454
 10
1.5
 20
1.0
 10
1.5
 20
0.9545454545454546
 10
1.5
 20
0.9090909090909092
 10
1.5
 20
0.8636363636363636
 10
1.5
 20
0.8181818181818181
 10
1.5
 20
0.7727272727272727
 10
1.5
 20
0.7272727272727273
 10
1.5
 20
0.6818181818181819
 10
1.5
 20
0.6363636363636362
 10
1.5
 20
0.5909090909090908
 10
1.5
 20
0.5454545454545454
 10
1.5
 20
0.5
 10
1.5
 20
0.4545454545454546
 10
1.5
 20
0.40909090909090917
 10
1.5
 20
0.36363636363636376
 10
1.5
 20
0.31818181818181834
 10
1.5
 20
0.2727272727272727
 10
1.5
 20
0.2272727272727273
 10
1.5
 20
0.18181818181818188
 10
1.5
 20
0.13636363636363624
 10
1.5
 20
0.09090909090909083
 10
1.5
 20
0.045454545454545414
 10
1.5
 20
0.0
 10
1.545945945945946
 20
0.0
 10
1.5918918918918918
 20
0.0
 10
1.637837837837838
 20
0.0
 10
1.6837837837837837
 20
0.0
 10
1.7297297297297298
 20
0.0
 10
1.7756756756756757
 20
0.0
 10
1.8216216216216217
 20
0.0
 10
1.8675675675675676
 20
0.0
 10
1.9135135135135135
 20
0.0
 10
1.9594594594594594
 20
0.0
 10
2.0054054054054054
 20
0.0
 10
2.0513513513513515
 20
0.0
 10
2.097297297297297
 20
0.0
 10
2.1432432432432433
 20
0.0
 10
2.1891891891891895
 20
0.0
 10
2.235135135135135
 20
0.0
 10
2.281081081081081
 20
0.0
 10
2.327027027027027
 20
0.0
 10
2.372972972972973
 20
0.0
 10
2.418918918918919
 20
0.0
 10
2.464864864864865
 20
0.0
 10
2.5108108108108107
 20
0.0
 10
2.556756756756757
 20
0.0
 10
2.602702702702703
 20
0.0
 10
2.6486486486486487
 20
0.0
 10
2.6945945945945944
 20
0.0
 10
2.7405405405405405
 20
0.0
 10
2.7864864864864867
 20
0.0
 10
2.832432432432433
 20
0.0
 10
2.8783783783783785
 20
0.0
 10
2.924324324324324
 20
0.0
 10
2.9702702702702704
 20
0.0
 10
3.0162162162162165
 20
0.0
 10
3.062162162162162
 20
0.0
 10
3.1081081081081083
 20
0.0
 10
3.154054054054054
 20
0.0
 10
3.2
 20
0.0
 10
3.2459459459459463
 20
0.0
 10
3.2918918918918925
 20
0.0
 10
3.3378378378378377
 20
0.0
 10
3.383783783783784
 20
0.0
 10
3.42972972972973
 20
0.0
 10
3.4756756756756757
 20
0.0
 10
3.521621621621622
 20
0.0
 10
3.567567567567568
 20
0.0
 10
3.6135135135135137
 20
0.0
 10
3.65945945945946
 20
0.0
 10
3.705405405405406
 20
0.0
 10
3.7513513513513517
 20
0.0
 10
3.7972972972972974
 20
0.0
 10
3.8432432432432435
 20
0.0
 10
3.889189189189189
 20
0.0
 10
3.9351351351351354
 20
0.0
 10
3.981081081081081
 20
0.0
 10
4.027027027027027
 20
0.0
 10
4.072972972972973
 20
0.0
 10
4.118918918918919
 20
0.0
 10
4.164864864864866
 20
0.0
 10
4.210810810810811
 20
0.0
 10
4.256756756756757
 20
0.0
 10
4.302702702702703
 20
0.0
 10
4.348648648648648
 20
0.0
 10
4.394594594594595
 20
0.0
 10
4.440540540540541
 20
0.0
 10
4.486486486486487
 20
0.0
 10
4.532432432432433
 20
0.0
 10
4.578378378378378
 20
0.0
 10
4.624324324324324
 20
0.0
 10
4.6702702702702705
 20
0.0
 10
4.716216216216217
 20
0.0
 10
4.762162162162163
 20
0.0
 10
4.808108108108108
 20
0.0
 10
4.854054054054054
 20
0.0
 10
4.9
 20
0.0
 10
4.945945945945946
 20
0.0
 10
4.991891891891893
 20
0.0
 10
5.037837837837838
 20
0.0
 10
5.083783783783785
 20
0.0
 10
5.12972972972973
 20
0.0
 10
5.175675675675675
 20
0.0
 10
5.2216216216216225
 20
0.0
 10
5.267567567567568
 20
0.0
 10
5.313513513513514
 20
0.0
 10
5.35945945945946
 20
0.0
 10
5.405405405405405
 20
0.0
 10
5.451351351351351
 20
0.0
 10
5.4972972972972975
 20
0.0
 10
5.543243243243244
 20
0.0
 10
5.58918918918919
 20
0.0
 10
5.635135135135136
 20
0.0
 10
5.681081081081081
 20
0.0
 10
5.727027027027027
 20
0.0
 10
5.7729729729729735
 20
0.0
 10
5.81891891891892
 20
0.0
 10
5.864864864864866
 20
0.0
 10
5.910810810810812
 20
0.0
 10
5.956756756756757
 20
0.0
 10
6.002702702702703
 20
0.0
 10
6.0486486486486495
 20
0.0
 10
6.094594594594595
 20
0.0
 10
6.140540540540541
 20
0.0
 10
6.186486486486487
 20
0.0
 10
6.232432432432432
 20
0.0
 10
6.278378378378378
 20
0.0
 10
6.324324324324325
 20
0.0
 10
6.370270270270271
 20
0.0
 10
6.416216216216217
 20
0.0
 10
6.462162162162162
 20
0.0
 10
6.508108108108108
 20
0.0
 10
6.554054054054054
 20
0.0
 10
6.6000000000000005
 20
0.0
 10
6.6000000000000005
 20
0.046511627906976744
 10
6.6000000000000005
 20
0.09302325581395349
 10
6.6000000000000005
 20
0.13953488372093023
 10
6.6000000000000005
 20
0.18604651162790697
 10
6.6000000000000005
 20
0.23255813953488372
 10
6.6000000000000005
 20
0.27906976744186046
 10
6.6000000000000005
 20
0.32558139534883723
 10
6.6000000000000005
 20
0.37209302325581395
 10
6.6000000000000005
 20
0.41860465116279066
 10
6.6000000000000005
 20
0.46511627906976744
 10
6.6000000000000005
 20
0.5116279069767442
 10
6.6000000000000005
 20
0.5581395348837209
 10
6.6000000000000005
 20
0.6046511627906976
 10
6.6000000000000005
 20
0.6511627906976745
 10
6.6000000000000005
 20
0.6976744186046512
 10
6.6000000000000005
 20
0.7441860465116279
 10
6.6000000000000005
 20
0.7906976744186046
 10
6.6000000000000005
 20
0.8372093023255813
 10
6.6000000000000005
 20
0.8837209302325582
 10
6.6000000000000005
 20
0.9302325581395349
 10
6.6000000000000005
 20
0.9767441860465116
 10
6.6000000000000005
 20
1.0232558139534884
 10
6.6000000000000005
 20
1.069767441860465
 10
6.6000000000000005
 20
1.1162790697674418
 10
6.6000000000000005
 20
1.1627906976744187
 10
6.6000000000000005
 20
1.2093023255813953
 10
6.6000000000000005
 20
1.255813953488372
 10
6.6000000000000005
 20
1.302325581395349
 10
6.6000000000000005
 20
1.3488372093023255
 10
6.6000000000000005
 20
1.3953488372093024
 10
6.6000000000000005
 20
1.441860465116279
 10
6.6000000000000005
 20
1.4883720930232558
 10
6.6000000000000005
 20
1.5348837209302326
 10
6.6000000000000005
 20
1.5813953488372092
 10
6.6000000000000005
 20
1.627906976744186
 10
6.6000000000000005
 20
1.6744186046511627
 10
6.6000000000000005
 20
1.7209302325581395
 10
6.6000000000000005
 20
1.7674418604651163
 10
6.6000000000000005
 20
1.813953488372093
 10
6.6000000000000005
 20
1.8604651162790697
 10
6.6000000000000005
 20
1.9069767441860466
 10
6.6000000000000005
 20
1.9534883720930232
 10
6.6000000000000005
 20
2.0
 10
6.554140127388536
 20
2.0
 10
6.508280254777071
 20
2.0
 10
6.462420382165606
 20
2.0
 10
6.416560509554141
 20
2.0
 10
6.370700636942676
 20
2.0
 10
6.324840764331211
 20
2.0
 10
6.278980891719746
 20
2.0
 10
6.233121019108281
 20
2.0
 10
6.187261146496816
 20
2.0
 10
6.141401273885351
 20
2.0
 10
6.095541401273886
 20
2.0
 10
6.049681528662421
 20
2.0
 10
6.003821656050956
 20
2.0
 10
5.957961783439491
 20
2.0
 10
5.912101910828026
 20
2.0
 10
5.866242038216561
 20
2.0
 10
5.820382165605096
 20
2.0
 10
5.774522292993631
 20
2.0
 10
5.728662420382166
 20
2.0
 10
5.682802547770701
 20
2.0
 10
5.636942675159236
 20
2.0
 10
5.591082802547771
 20
2.0
 10
5.5452229299363065
 20
2.0
 10
5.499363057324841
 20
2.0
 10
5.453503184713376
 20
2.0
 10
5.407643312101911
 20
2.0
 10
5.361783439490446
 20
2.0
 10
5.315923566878981
 20
2.0
 10
5.270063694267516
 20
2.0
 10
5.224203821656051
 20
2.0
 10
5.178343949044586
 20
2.0
 10
5.132484076433121
 20
2.0
 10
5.086624203821656
 20
2.0
 10
5.040764331210191
 20
2.0
 10
4.994904458598726
 20
2.0
 10
4.949044585987261
 20
2.0
 10
4.903184713375796
 20
2.0
 10
4.857324840764331
 20
2.0
 10
4.811464968152866
 20
2.0
 10
4.765605095541401
 20
2.0
 10
4.719745222929936
 20
2.0
 10
4.673885350318471
 20
2.0
 10
4.6280254777070065
 20
2.0
 10
4.5821656050955415
 20
2.0
 10
4.5363057324840765
 20
2.0
 10
4.490445859872612
 20
2.0
 10
4.444585987261147
 20
2.0
 10
4.398726114649682
 20
2.0
 10
4.352866242038216
 20
2.0
 10
4.307006369426752
 20
2.0
 10
4.261146496815286
 20
2.0
 10
4.215286624203822
 20
2.0
 10
4.169426751592356
 20
2.0
 10
4.123566878980892
 20
2.0
 10
4.077707006369426
 20
2.0
 10
4.031847133757962
 20
2.0
 10
3.9859872611464966
 20
2.0
 10
3.9401273885350316
 20
2.0
 10
3.8942675159235667
 20
2.0
 10
3.8484076433121017
 20
2.0
 10
3.8025477707006368
 20
2.0
 10
3.756687898089172
 20
2.0
 10
3.710828025477707
 20
2.0
 10
3.664968152866242
 20
2.0
 10
3.619108280254777
 20
2.0
 10
3.573248407643312
 20
2.0
 10
3.527388535031847
 20
2.0
 10
3.481528662420382
 20
2.0
 10
3.435668789808917
 20
2.0
 10
3.389808917197452
 20
2.0
 10
3.343949044585987
 20
2.0
 10
3.2980891719745222
 20
2.0
 10
3.2522292993630573
 20
2.0
 10
3.2063694267515923
 20
2.0
 10
3.1605095541401274
 20
2.0
 10
3.1146496815286624
 20
2.0
 10
3.0687898089171974
 20
2.0
 10
3.0229299363057325
 20
2.0
 10
2.9770700636942675
 20
2.0
 10
2.9312101910828026
 20
2.0
 10
2.8853503184713376
 20
2.0
 10
2.8394904458598726
 20
2.0
 10
2.7936305732484077
 20
2.0
 10
2.7477707006369427
 20
2.0
 10
2.7019108280254778
 20
2.0
 10
2.656050955414013
 20
2.0
 10
2.610191082802548
 20
2.0
 10
2.5643312101910825
 20
2.0
 10
2.5184713375796175
 20
2.0
 10
2.4726114649681525
 20
2.0
 10
2.4267515923566876
 20
2.0
 10
2.3808917197452226
 20
2.0
 10
2.3350318471337577
 20
2.0
 10
2.2891719745222927
 20
2.0
 10
2.2433121019108277
 20
2.0
 10
2.197452229299362
 20
2.0
 10
2.151592356687897
 20
2.0
 10
2.105732484076432
 20
2.0
 10
2.059872611464967
 20
2.0
 10
2.014012738853502
 20
2.0
 10
1.9681528662420371
 20
2.0
 10
1.9222929936305722
 20
2.0
 10
1.8764331210191072
 20
2.0
 10
1.8305732484076422
 20
2.0
 10
1.7847133757961773
 20
2.0
 10
1.7388535031847123
 20
2.0
 10
1.6929936305732474
 20
2.0
 10
1.6471337579617824
 20
2.0
 10
1.6012738853503174
 20
2.0
 10
1.5554140127388525
 20
2.0
 10
1.5095541401273875
 20
2.0
 10
1.4636942675159226
 20
2.0
 10
1.4178343949044576
 20
2.0
 10
1.3719745222929927
 20
2.0
 10
1.3261146496815277
 20
2.0
 10
1.2802547770700627
 20
2.0
 10
1.2343949044585978
 20
2.0
 10
1.1885350318471328
 20
2.0
 10
1.1426751592356679
 20
2.0
 10
1.096815286624203
 20
2.0
 10
1.050955414012738
 20
2.0
 10
1.005095541401273
 20
2.0
 10
0.959235668789808
 20
2.0
 10
0.9133757961783431
 20
2.0
 10
0.8675159235668781
 20
2.0
 10
0.8216560509554132
 20
2.0
 10
0.7757961783439482
 20
2.0
 10
0.7299363057324832
 20
2.0
 10
0.6840764331210183
 20
2.0
 10
0.6382165605095533
 20
2.0
 10
0.5923566878980884
 20
2.0
 10
0.5464968152866234
 20
2.0
 10
0.5006369426751585
 20
2.0
 10
0.4547770700636935
 20
2.0
 10
0.40891719745222854
 20
2.0
 10
0.3630573248407636
 20
2.0
 10
0.3171974522292986
 20
2.0
 10
0.27133757961783367
 20
2.0
 10
0.2254777070063687
 20
2.0
 10
0.17961783439490375
 20
2.0
 10
0.1337579617834388
 20
2.0
 10
0.08789808917197384
 20
2.0
 10
0.04203821656050888
 20
2.0
 10
-0.0038216560509560793
 20
2.0
 10
-0.04968152866242104
 20
2.0
 10
-0.095541401273886
 20
2.0
 10
-0.14140127388535095
 20
2.0
 10
-0.1872611464968159
 20
2.0
 10
-0.23312101910828087
 20
2.0
 10
-0.2789808917197458
 20
2.0
 10
-0.3248407643312108
 20
2.0
 10
-0.37070063694267574
 20
2.0
 10
-0.4165605095541407
 20
2.0
 10
-0.46242038216560566
 20
2.0
 10
-0.5082802547770706
 20
2.0
 10
-0.5541401273885356
 20
2.0
 10
-0.6000000000000001
 20
2.0
 10
-0.6000000000000001
 20
1.9545454545454546
 10
-0.6000000000000001
 20
1.9090909090909092
 10
-0.6000000000000001
 20
1.8636363636363638
 10
-0.6000000000000001
 20
1.8181818181818181
 10
-0.6000000000000001
 20
1.7727272727272727
 10
-0.6000000000000001
 20
1.7272727272727273
 10
-0.6000000000000001
 20
1.6818181818181819
 10
-0.6000000000000001
 20
1.6363636363636362
 10
-0.6000000000000001
 20
1.5909090909090908
 10
-0.6000000000000001
 20
1.5454545454545454
  0
ENDSEC
  0
SECTION
  2
OBJECTS
  0
DICTIONARY
  5
A
330
0
100
AcDbDictionary
281
1
  3
ACAD_COLOR
350
B
  3
ACAD_GROUP
350
C
  3
ACAD_LAYOUT
350
D
  3
ACAD_MATERIAL
350
E
  3
ACAD_MLEADERSTYLE
350
F
  3
ACAD_MLINESTYLE
350
10
  3
ACAD_PLOTSETTINGS
350
11
  3
ACAD_PLOTSTYLENAME
350
12
  3
ACAD_SCALELIST
350
14
  3
ACAD_TABLESTYLE
350
15
  3
ACAD_VISUALSTYLE
350
16
  3
EZDXF_META
350
2D
  0
DICTIONARY
  5
B
330
A
100
AcDbDictionary
281
1
  0
DICTIONARY
  5
C
330
A
100
AcDbDictionary
281
1
  0
DICTIONARY
  5
D
330
A
100
AcDbDictionary
281
1
  3
Model
350
1A
  3
Layout1
350
1E
  0
DICTIONARY
  5
E
330
A
100
AcDbDictionary
281
1
  3
ByBlock
350
1F
  3
ByLayer
350
20
  3
Global
350
21
  0
DICTIONARY
  5
F
330
A
100
AcDbDictionary
281
1
  3
Standard
350
2C
  0
DICTIONARY
  5
10
330
A
100
AcDbDictionary
281
1
  3
Standard
350
22
  0
DICTIONARY
  5
11
330
A
100
AcDbDictionary
281
1
  0
ACDBDICTIONARYWDFLT
  5
12
330
A
100
AcDbDictionary
281
1
  3
Normal
350
13
100
AcDbDictionaryWithDefault
340
13
  0
ACDBPLACEHOLDER
  5
13
330
12
  0
DICTIONARY
  5
14
330
A
100
AcDbDictionary
281
1
  0
DICTIONARY
  5
15
330
A
100
AcDbDictionary
281
1
  0
DICTIONARY
  5
16
330
A
100
AcDbDictionary
281
1
  0
LAYOUT
  5
1A
330
D
100
AcDbPlotSettings
  1

  4
A3
  6

 40
7.5
 41
20.0
 42
7.5
 43
20.0
 44
420.0
 45
297.0
 46
0.0
 47
0.0
 48
0.0
 49
0.0
140
0.0
141
0.0
142
1.0
143
1.0
 70
1024
 72
1
 73
0
 74
5
  7

 75
16
 76
0
 77
2
 78
300
147
1.0
148
0.0
149
0.0
100
AcDbLayout
  1
Model
 70
1
 71
0
 10
0.0
 20
0.0
 11
420.0
 21
297.0
 12
0.0
 22
0.0
 32
0.0
 14
1e+20
 24
1e+20
 34
1e+20
 15
-1e+20
 25
-1e+20
 35
-1e+20
146
0.0
 13
0.0
 23
0.0
 33
0.0
 16
1.0
 26
0.0
 36
0.0
 17
0.0
 27
1.0
 37
0.0
 76
1
330
17
  0
LAYOUT
  5
1E
330
D
100
AcDbPlotSettings
  1

  4
A3
  6

 40
7.5
 41
20.0
 42
7.5
 43
20.0
 44
420.0
 45
297.0
 46
0.0
 47
0.0
 48
0.0
 49
0.0
140
0.0
141
0.0
142
1.0
143
1.0
 70
0
 72
1
 73
0
 74
5
  7

 75
16
 76
0
 77
2
 78
300
147
1.0
148
0.0
149
0.0
100
AcDbLayout
  1
Layout1
 70
1
 71
1
 10
0.0
 20
0.0
 11
420.0
 21
297.0
 12
0.0
 22
0.0
 32
0.0
 14
1e+20
 24
1e+20
 34
1e+20
 15
-1e+20
 25
-1e+20
 35
-1e+20
146
0.0
 13
0.0
 23
0.0
 33
0.0
 16
1.0
 26
0.0
 36
0.0
 17
0.0
 27
1.0
 37
0.0
 76
1
330
1B
  0
MATERIAL
  5
1F
102
{ACAD_REACTORS
330
E
102
}
330
E
100
AcDbMaterial
  1
ByBlock
  2

 70
0
 40
1.0
 71
1
 41
1.0
 91
-1023410177
 42
1.0
 72
1
  3

 73
1
 74
1
 75
1
 44
0.5
 73
0
 45
1.0
 46
1.0
 77
1
  4

 78
1
 79
1
170
1
 48
1.0
171
1
  6

172
1
173
1
174
1
140
1.0
141
1.0
175
1
  7

176
1
177
1
178
1
143
1.0
179
1
  8

270
1
271
1
272
1
145
1.0
146
1.0
273
1
  9

274
1
275
1
276
1
 42
1.0
 72
1
  3

 73
1
 74
1
 75
1
 94
63
  0
MATERIAL
  5
20
102
{ACAD_REACTORS
330
E
102
}
330
E
100
AcDbMaterial
  1
ByLayer
  2

 70
0
 40
1.0
 71
1
 41
1.0
 91
-1023410177
 42
1.0
 72
1
  3

 73
1
 74
1
 75
1
 44
0.5
 73
0
 45
1.0
 46
1.0
 77
1
  4

 78
1
 79
1
170
1
 48
1.0
171
1
  6

172
1
173
1
174
1
140
1.0
141
1.0
175
1
  7

176
1
177
1
178
1
143
1.0
179
1
  8

270
1
271
1
272
1
145
1.0
146
1.0
273
1
  9

274
1
275
1
276
1
 42
1.0
 72
1
  3

 73
1
 74
1
 75
1
 94
63
  0
MATERIAL
  5
21
102
{ACAD_REACTORS
330
E
102
}
330
E
100
AcDbMaterial
  1
Global
  2

 70
0
 40
1.0
 71
1
 41
1.0
 91
-1023410177
 42
1.0
 72
1
  3

 73
1
 74
1
 75
1
 44
0.5
 73
0
 45
1.0
 46
1.0
 77
1
  4

 78
1
 79
1
170
1
 48
1.0
171
1
  6

172
1
173
1
174
1
140
1.0
141
1.0
175
1
  7

176
1
177
1
178
1
143
1.0
179
1
  8

270
1
271
1
272
1
145
1.0
146
1.0
273
1
  9

274
1
275
1
276
1
 42
1.0
 72
1
  3

 73
1
 74
1
 75
1
 94
63
  0
MLINESTYLE
  5
22
102
{ACAD_REACTORS
330
10
102
}
330
10
100
AcDbMlineStyle
  2
Standard
 70
0
  3

 62
256
 51
90.0
 52
90.0
 71
2
 49
0.5
 62
256
  6
BYLAYER
 49
-0.5
 62
256
  6
BYLAYER
  0
MLEADERSTYLE
  5
2C
102
{ACAD_REACTORS
330
F
102
}
330
F
100
AcDbMLeaderStyle
179
2
170
2
171
1
172
0
 90
2
 40
0.0
 41
0.0
173
1
 91
-1056964608
 92
-2
290
1
 42
2.0
291
1
 43
8.0
  3
Standard
 44
4.0
300

342
29
174
1
175
1
176
0
178
1
 93
-1056964608
 45
4.0
292
0
297
0
 46
4.0
 94
-1056964608
 47
1.0
 49
1.0
140
1.0
294
1
141
0.0
177
0
142
1.0
295
0
296
0
143
3.75
271
0
272
9
273
9
  0
DICTIONARY
  5
2D
330
A
100
AcDbDictionary
280
1
281
1
  3
CREATED_BY_EZDXF
350
2E
  3
WRITTEN_BY_EZDXF
350
32
  0
DICTIONARYVAR
  5
2E
330
2D
100
DictionaryVariables
280
0
  1
1.4.4 @ 2026-09-01T01:16:51.852236+00:00
  0
DICTIONARYVAR
  5
32
330
2D
100
DictionaryVariables
280
0
  1
1.4.4 @ 2026-09-01T01:16:51.853969+00:00
  0
ENDSEC
  0
EOF
