  0
SECTION
  2
HEADER
  9
$ACADVER
  1
AC1024
  9
$ACADMAINTVER
 70
6
  9
$DWGCODEPAGE
  3
ANSI_1252
  9
$LASTSAVEDBY
  1
ezdxf
  9
$INSBASE
 10
0.0
 20
0.0
 30
0.0
  9
$EXTMIN
 10
1e+20
 20
1e+20
 30
1e+20
  9
$EXTMAX
 10
-1e+20
 20
-1e+20
 30
-1e+20
  9
$LIMMIN
 10
0.0
 20
0.0
  9
$LIMMAX
 10
420.0
 20
297.0
  9
$ORTHOMODE
 70
0
  9
$REGENMODE
 70
1
  9
$FILLMODE
 70
1
  9
$QTEXTMODE
 70
0
  9
$MIRRTEXT
 70
1
  9
$LTSCALE
 40
1.0
  9
$ATTMODE
 70
1
  9
$TEXTSIZE
 40
2.5
  9
$TRACEWID
 40
1.0
  9
$TEXTSTYLE
  7
Standard
  9
$CLAYER
  8
0
  9
$CELTYPE
  6
ByLayer
  9
$CECOLOR
 62
256
  9
$CELTSCALE
 40
1.0
  9
$DISPSILH
 70
0
  9
$DIMSCALE
 40
1.0
  9
$DIMASZ
 40
2.5
  9
$DIMEXO
 40
0.625
  9
$DIMDLI
 40
3.75
  9
$DIMRND
 40
0.0
  9
$DIMDLE
 40
0.0
  9
$DIMEXE
 40
1.25
  9
$DIMTP
 40
0.0
  9
$DIMTM
 40
0.0
  9
$DIMTXT
 40
2.5
  9
$DIMCEN
 40
2.5
  9
$DIMTSZ
 40
0.0
  9
$DIMTOL
 70
0
  9
$DIMLIM
 70
0
  9
$DIMTIH
 70
0
  9
$DIMTOH
 70
0
  9
$DIMSE1
 70
0
  9
$DIMSE2
 70
0
  9
$DIMTAD
 70
1
  9
$DIMZIN
 70
8
  9
$DIMBLK
  1

  9
$DIMASO
 70
1
  9
$DIMSHO
 70
1
  9
$DIMPOST
  1

  9
$DIMAPOST
  1

  9
$DIMALT
 70
0
  9
$DIMALTD
 70
3
  9
$DIMALTF
 40
0.03937007874
  9
$DIMLFAC
 40
1.0
  9
$DIMTOFL
 70
1
  9
$DIMTVP
 40
0.0
  9
$DIMTIX
 70
0
  9
$DIMSOXD
 70
0
  9
$DIMSAH
 70
0
  9
$DIMBLK1
  1

  9
$DIMBLK2
  1

  9
$DIMSTYLE
  2
ISO-25
  9
$DIMCLRD
 70
0
  9
$DIMCLRE
 70
0
  9
$DIMCLRT
 70
0
  9
$DIMTFAC
 40
1.0
  9
$DIMGAP
 40
0.625
  9
$DIMJUST
 70
0
  9
$DIMSD1
 70
0
  9
$DIMSD2
 70
0
  9
$DIMTOLJ
 70
0
  9
$DIMTZIN
 70
8
  9
$DIMALTZ
 70
0
  9
$DIMALTTZ
 70
0
  9
$DIMUPT
 70
0
  9
$DIMDEC
 70
2
  9
$DIMTDEC
 70
2
  9
$DIMALTU
 70
2
  9
$DIMALTTD
 70
3
  9
$DIMTXSTY
  7
Standard
  9
$DIMAUNIT
 70
0
  9
$DIMADEC
 70
0
  9
$DIMALTRND
 40
0.0
  9
$DIMAZIN
 70
0
  9
$DIMDSEP
 70
44
  9
$DIMATFIT
 70
3
  9
$DIMFRAC
 70
0
  9
$DIMLDRBLK
  1

  9
$DIMLUNIT
 70
2
  9
$DIMLWD
 70
-2
  9
$DIMLWE
 70
-2
  9
$DIMTMOVE
 70
0
  9
$DIMFXL
 40
1.0
  9
$DIMFXLON
 70
0
  9
$DIMJOGANG
 40
0.785398163397
  9
$DIMTFILL
 70
0
  9
$DIMTFILLCLR
 70
0
  9
$DIMARCSYM
 70
0
  9
$DIMLTYPE
  6

  9
$DIMLTEX1
  6

  9
$DIMLTEX2
  6

  9
$DIMTXTDIRECTION
 70
0
  9
$LUNITS
 70
2
  9
$LUPREC
 70
4
  9
$SKETCHINC
 40
1.0
  9
$FILLETRAD
 40
10.0
  9
$AUNITS
 70
0
  9
$AUPREC
 70
2
  9
$MENU
  1
.
  9
$ELEVATION
 40
0.0
  9
$PELEVATION
 40
0.0
  9
$THICKNESS
 40
0.0
  9
$LIMCHECK
 70
0
  9
$CHAMFERA
 40
0.0
  9
$CHAMFERB
 40
0.0
  9
$CHAMFERC
 40
0.0
  9
$CHAMFERD
 40
0.0
  9
$SKPOLY
 70
0
  9
$TDCREATE
 40
2461285.1367013888
  9
$TDUCREATE
 40
2458532.153996898
  9
$TDUPDATE
 40
2461285.1367013888
  9
$TDUUPDATE
 40
2458532.1544311
  9
$TDINDWG
 40
0.0
  9
$TDUSRTIMER
 40
0.0
  9
$USRTIMER
 70
1
  9
$ANGBASE
 50
0.0
  9
$ANGDIR
 70
0
  9
$PDMODE
 70
0
  9
$PDSIZE
 40
0.0
  9
$PLINEWID
 40
0.0
  9
$SPLFRAME
 70
0
  9
$SPLINETYPE
 70
6
  9
$SPLINESEGS
 70
8
  9
$HANDSEED
  5
34
  9
$SURFTAB1
 70
6
  9
$SURFTAB2
 70
6
  9
$SURFTYPE
 70
6
  9
$SURFU
 70
6
  9
$SURFV
 70
6
  9
$UCSBASE
  2

  9
$UCSNAME
  2

  9
$UCSORG
 10
0.0
 20
0.0
 30
0.0
  9
$UCSXDIR
 10
1.0
 20
0.0
 30
0.0
  9
$UCSYDIR
 10
0.0
 20
1.0
 30
0.0
  9
$UCSORTHOREF
  2

  9
$UCSORTHOVIEW
 70
0
  9
$UCSORGTOP
 10
0.0
 20
0.0
 30
0.0
  9
$UCSORGBOTTOM
 10
0.0
 20
0.0
 30
0.0
  9
$UCSORGLEFT
 10
0.0
 20
0.0
 30
0.0
  9
$UCSORGRIGHT
 10
0.0
 20
0.0
 30
0.0
  9
$UCSORGFRONT
 10
0.0
 20
0.0
 30
0.0
  9
$UCSORGBACK
 10
0.0
 20
0.0
 30
0.0
  9
$PUCSBASE
  2

  9
$PUCSNAME
  2

  9
$PUCSORG
 10
0.0
 20
0.0
 30
0.0
  9
$PUCSXDIR
 10
1.0
 20
0.0
 30
0.0
  9
$PUCSYDIR
 10
0.0
 20
1.0
 30
0.0
  9
$PUCSORTHOREF
  2

  9
$PUCSORTHOVIEW
 70
0
  9
$PUCSORGTOP
 10
0.0
 20
0.0
 30
0.0
  9
$PUCSORGBOTTOM
 10
0.0
 20
0.0
 30
0.0
  9
$PUCSORGLEFT
 10
0.0
 20
0.0
 30
0.0
  9
$PUCSORGRIGHT
 10
0.0
 20
0.0
 30
0.0
  9
$PUCSORGFRONT
 10
0.0
 20
0.0
 30
0.0
  9
$PUCSORGBACK
 10
0.0
 20
0.0
 30
0.0
  9
$USERI1
 70
0
  9
$USERI2
 70
0
  9
$USERI3
 70
0
  9
$USERI4
 70
0
  9
$USERI5
 70
0
  9
$USERR1
 40
0.0
  9
$USERR2
 40
0.0
  9
$USERR3
 40
0.0
  9
$USERR4
 40
0.0
  9
$USERR5
 40
0.0
  9
$WORLDVIEW
 70
1
  9
$SHADEDGE
 70
3
  9
$SHADEDIF
 70
70
  9
$TILEMODE
 70
1
  9
$MAXACTVP
 70
64
  9
$PINSBASE
 10
0.0
 20
0.0
 30
0.0
  9
$PLIMCHECK
 70
0
  9
$PEXTMIN
 10
1e+20
 20
1e+20
 30
1e+20
  9
$PEXTMAX
 10
-1e+20
 20
-1e+20
 30
-1e+20
  9
$PLIMMIN
 10
0.0
 20
0.0
  9
$PLIMMAX
 10
420.0
 20
297.0
  9
$UNITMODE
 70
0
  9
$VISRETAIN
 70
1
  9
$PLINEGEN
 70
0
  9
$PSLTSCALE
 70
1
  9
$TREEDEPTH
 70
3020
  9
$CMLSTYLE
  2
Standard
  9
$CMLJUST
 70
0
  9
$CMLSCALE
 40
20.0
  9
$PROXYGRAPHICS
 70
1
  9
$MEASUREMENT
 70
1
  9
$CELWEIGHT
370
-1
  9
$ENDCAPS
280
0
  9
$JOINSTYLE
280
0
  9
$LWDISPLAY
290
0
  9
$INSUNITS
 70
6
  9
$HYPERLINKBASE
  1

  9
$STYLESHEET
  1

  9
$XEDIT
290
1
  9
$CEPSNTYPE
380
0
  9
$PSTYLEMODE
290
1
  9
$FINGERPRINTGUID
  2
{253B2AD6-CA63-4659-A819-3CAF8859A14C}
  9
$VERSIONGUID
  2
{83CF1E64-EDB1-4CD4-80C3-DB068AC68FA6}
  9
$EXTNAMES
290
1
  9
$PSVPSCALE
 40
0.0
  9
$OLESTARTUP
290
0
  9
$SORTENTS
280
127
  9
$INDEXCTL
280
0
  9
$HIDETEXT
280
1
  9
$XCLIPFRAME
280
1
  9
$HALOGAP
280
0
  9
$OBSCOLOR
 70
257
  9
$OBSLTYPE
280
0
  9
$INTERSECTIONDISPLAY
280
0
  9
$INTERSECTIONCOLOR
 70
257
  9
$DIMASSOC
280
2
  9
$PROJECTNAME
  1

  9
$CAMERADISPLAY
290
0
  9
$LENSLENGTH
 40
50.0
  9
$CAMERAHEIGHT
 40
0.0
  9
$STEPSPERSEC
 40
24.0
  9
$STEPSIZE
 40
100.0
  9
$3DDWFPREC
 40
2.0
  9
$PSOLWIDTH
 40
0.005
  9
$PSOLHEIGHT
 40
0.08
  9
$LOFTANG1
 40
1.570796326795
  9
$LOFTANG2
 40
1.570796326795
  9
$LOFTMAG1
 40
0.0
  9
$LOFTMAG2
 40
0.0
  9
$LOFTPARAM
 70
7
  9
$LOFTNORMALS
280
1
  9
$LATITUDE
 40
37.795
  9
$LONGITUDE
 40
-122.394
  9
$NORTHDIRECTION
 40
0.0
  9
$TIMEZONE
 70
-8000
  9
$LIGHTGLYPHDISPLAY
280
1
  9
$TILEMODELIGHTSYNCH
280
1
  9
$CMATERIAL
347
20
  9
$SOLIDHIST
280
0
  9
$SHOWHIST
280
1
  9
$DWFFRAME
280
2
  9
$DGNFRAME
280
2
  9
$REALWORLDSCALE
290
1
  9
$INTERFERECOLOR
 62
256
  9
$CSHADOW
280
0
  9
$SHADOWPLANELOCATION
 40
0.0
  0
ENDSEC
  0
SECTION
  2
CLASSES
  0
CLASS
  1
ACDBDICTIONARYWDFLT
  2
AcDbDictionaryWithDefault
  3
ObjectDBX Classes
 90
0
 91
0
280
0
281
0
  0
CLASS
  1
SUN
  2
AcDbSun
  3
SCENEOE
 90
1153
 91
0
280
0
281
0
  0
CLASS
  1
VISUALSTYLE
  2
AcDbVisualStyle
  3
ObjectDBX Classes
 90
4095
 91
0
280
0
281
0
  0
CLASS
  1
MATERIAL
  2
AcDbMaterial
  3
ObjectDBX Classes
 90
1153
 91
0
280
0
281
0
  0
CLASS
  1
SCALE
  2
AcDbScale
  3
ObjectDBX Classes
 90
1153
 91
0
280
0
281
0
  0
CLASS
  1
TABLESTYLE
  2
AcDbTableStyle
  3
ObjectDBX Classes
 90
4095
 91
0
280
0
281
0
  0
CLASS
  1
MLEADERSTYLE
  2
AcDbMLeaderStyle
  3
ACDB_MLEADERSTYLE_CLASS
 90
4095
 91
0
280
0
281
0
  0
CLASS
  1
DICTIONARYVAR
  2
AcDbDictionaryVar
  3
ObjectDBX Classes
 90
0
 91
0
280
0
281
0
  0
CLASS
  1
CELLSTYLEMAP
  2
AcDbCellStyleMap
  3
ObjectDBX Classes
 90
1152
 91
0
280
0
281
0
  0
CLASS
  1
MENTALRAYRENDERSETTINGS
  2
AcDbMentalRayRenderSettings
  3
SCENEOE
 90
1024
 91
0
280
0
281
0
  0
CLASS
  1
ACDBDETAILVIEWSTYLE
  2
AcDbDetailViewStyle
  3
ObjectDBX Classes
 90
1025
 91
0
280
0
281
0
  0
CLASS
  1
ACDBSECTIONVIEWSTYLE
  2
AcDbSectionViewStyle
  3
ObjectDBX Classes
 90
1025
 91
0
280
0
281
0
  0
CLASS
  1
RASTERVARIABLES
  2
AcDbRasterVariables
  3
ISM
 90
0
 91
0
280
0
281
0
  0
CLASS
  1
ACDBPLACEHOLDER
  2
AcDbPlaceHolder
  3
ObjectDBX Classes
 90
0
 91
0
280
0
281
0
  0
CLASS
  1
LAYOUT
  2
AcDbLayout
  3
ObjectDBX Classes
 90
0
 91
0
280
0
281
0
  0
ENDSEC
  0
SECTION
  2
TABLES
  0
TABLE
  2
VPORT
  5
8
330
0
100
AcDbSymbolTable
 70
1
  0
VPORT
  5
23
330
8
100
AcDbSymbolTableRecord
100
AcDbViewportTableRecord
  2
*Active
 70
0
 10
0.0
 20
0.0
 11
1.0
 21
1.0
 12
0.0
 22
0.0
 13
0.0
 23
0.0
 14
0.5
 24
0.5
 15
0.5
 25
0.5
 16
0.0
 26
0.0
 36
1.0
 17
0.0
 27
0.0
 37
0.0
 40
1000.0
 41
1.34
 42
50.0
 43
0.0
 44
0.0
 50
0.0
 51
0.0
 71
0
 72
1000
 73
1
 74
3
 75
0
 76
0
 77
0
 78
0
281
0
 65
0
146
0.0
  0
ENDTAB
  0
TABLE
  2
LTYPE
  5
2
330
0
100
AcDbSymbolTable
 70
3
  0
LTYPE
  5
24
330
2
100
AcDbSymbolTableRecord
100
AcDbLinetypeTableRecord
  2
ByBlock
 70
0
  3

 72
65
 73
0
 40
0.0
  0
LTYPE
  5
25
330
2
100
AcDbSymbolTableRecord
100
AcDbLinetypeTableRecord
  2
ByLayer
 70
0
  3

 72
65
 73
0
 40
0.0
  0
LTYPE
  5
26
330
2
100
AcDbSymbolTableRecord
100
AcDbLinetypeTableRecord
  2
Continuous
 70
0
  3

 72
65
 73
0
 40
0.0
  0
ENDTAB
  0
TABLE
  2
LAYER
  5
1
330
0
100
AcDbSymbolTable
 70
2
  0
LAYER
  5
27
330
1
100
AcDbSymbolTableRecord
100
AcDbLayerTableRecord
  2
0
 70
0
 62
7
  6
Continuous
370
-3
390
13
347
21
  0
LAYER
  5
28
330
1
100
AcDbSymbolTableRecord
100
AcDbLayerTableRecord
  2
Defpoints
 70
0
 62
7
  6
Continuous
290
0
370
-3
390
13
347
21
  0
ENDTAB
  0
TABLE
  2
STYLE
  5
5
330
0
100
AcDbSymbolTable
 70
1
  0
STYLE
  5
29
330
5
100
AcDbSymbolTableRecord
100
AcDbTextStyleTableRecord
  2
Standard
 70
0
 40
0.0
 41
1.0
 50
0.0
 71
0
 42
2.5
  3
txt
  4

  0
ENDTAB
  0
TABLE
  2
VIEW
  5
7
330
0
100
AcDbSymbolTable
 70
0
  0
ENDTAB
  0
TABLE
  2
UCS
  5
6
330
0
100
AcDbSymbolTable
 70
0
  0
ENDTAB
  0
TABLE
  2
APPID
  5
3
330
0
100
AcDbSymbolTable
 70
3
  0
APPID
  5
2A
330
3
100
AcDbSymbolTableRecord
100
AcDbRegAppTableRecord
  2
ACAD
 70
0
  0
APPID
  5
31
330
3
100
AcDbSymbolTableRecord
100
AcDbRegAppTableRecord
  2
HATCHBACKGROUNDCOLOR
 70
0
  0
APPID
  5
32
330
3
100
AcDbSymbolTableRecord
100
AcDbRegAppTableRecord
  2
EZDXF
 70
0
  0
ENDTAB
  0
TABLE
  2
DIMSTYLE
  5
4
330
0
100
AcDbSymbolTable
 70
1
100
AcDbDimStyleTable
  0
DIMSTYLE
105
2B
330
4
100
AcDbSymbolTableRecord
100
AcDbDimStyleTableRecord
  2
Standard
 70
0
 40
1.0
 41
2.5
 42
0.625
 43
3.75
 44
1.25
 45
0.0
 46
0.0
 47
0.0
 48
0.0
 49
2.5
140
2.5
141
2.5
142
0.0
143
0.03937007874
144
1.0
145
0.0
146
1.0
147
0.625
148
0.0
 69
0
 70
0
 71
0
 72
0
 73
0
 74
0
 75
0
 76
0
 77
1
 78
8
 79
3
170
0
171
3
172
1
173
0
174
0
175
0
176
0
177
0
178
0
179
2
271
2
272
2
273
2
274
3
275
0
276
0
277
2
278
44
279
0
280
0
281
0
282
0
283
0
284
8
285
0
286
0
288
0
289
3
290
0
371
-2
372
-2
  0
ENDTAB
  0
TABLE
  2
BLOCK_RECORD
  5
9
330
0
100
AcDbSymbolTable
 70
2
  0
BLOCK_RECORD
  5
17
330
9
100
AcDbSymbolTableRecord
100
AcDbBlockTableRecord
  2
*Model_Space
340
1A
 70
0
280
1
281
0
  0
BLOCK_RECORD
  5
1B
330
9
100
AcDbSymbolTableRecord
100
AcDbBlockTableRecord
  2
*Paper_Space
340
1E
 70
0
280
1
281
0
  0
ENDTAB
  0
ENDSEC
  0
SECTION
  2
BLOCKS
  0
BLOCK
  5
18
330
17
100
AcDbEntity
  8
0
100
AcDbBlockBegin
  2
*Model_Space
 70
0
 10
0.0
 20
0.0
 30
0.0
  3
*Model_Space
  1

  0
ENDBLK
  5
19
330
17
100
AcDbEntity
  8
0
100
AcDbBlockEnd
  0
BLOCK
  5
1C
330
1B
100
AcDbEntity
  8
0
100
AcDbBlockBegin
  2
*Paper_Space
 70
0
 10
0.0
 20
0.0
 30
0.0
  3
*Paper_Space
  1

  0
ENDBLK
  5
1D
330
1B
100
AcDbEntity
  8
0
100
AcDbBlockEnd
  0
ENDSEC
  0
SECTION
  2
ENTITIES
  0
LWPOLYLINE
  5
2F
330
17
100
AcDbEntity
  8
PAREDES
100
AcDbPolyline
 90
400
 70
1
 10
-0.4
 20
0.5
 10
-0.3710843373493976
 20
0.5
 10
-0.3421686746987952
 20
0.5
 10
-0.3132530120481928
 20
0.5
 10
-0.28433734939759037
 20
0.5
 10
-0.25542168674698795
 20
0.5
 10
-0.2265060240963855
 20
0.5
 10
-0.1975903614457831
 20
0.5
 10
-0.1686746987951807
 20
0.5
 10
-0.1397590361445783
 20
0.5
 10
-0.11084337349397588
 20
0.5
 10
-0.08192771084337347
 20
0.5
 10
-0.053012048192771
 20
0.5
 10
-0.02409638554216864
 20
0.5
 10
0.004819277108433828
 20
0.5
 10
0.03373493975903619
 20
0.5
 10
0.0626506024096386
 20
0.5
 10
0.09156626506024107
 20
0.5
 10
0.12048192771084343
 20
0.5
 10
0.14939759036144584
 20
0.5
 10
0.17831325301204826
 20
0.5
 10
0.20722891566265078
 20
0.5
 10
0.23614457831325308
 20
0.5
 10
0.2650602409638555
 20
0.5
 10
0.293975903614458
 20
0.5
 10
0.32289156626506044
 20
0.5
 10
0.35180722891566274
 20
0.5
 10
0.38072289156626515
 20
0.5
 10
0.4096385542168677
 20
0.5
 10
0.43855421686747
 20
0.5
 10
0.4674698795180724
 20
0.5
 10
0.4963855421686749
 20
0.5
 10
0.5253012048192772
 20
0.5
 10
0.5542168674698796
 20
0.5
 10
0.5831325301204822
 20
0.5
 10
0.6120481927710845
 20
0.5
 10
0.6409638554216869
 20
0.5
 10
0.6698795180722895
 20
0.5
 10
0.6987951807228917
 20
0.5
 10
0.7277108433734941
 20
0.5
 10
0.7566265060240965
 20
0.5
 10
0.785542168674699
 20
0.5
 10
0.8144578313253016
 20
0.5
 10
0.8433734939759038
 20
0.5
 10
0.8722891566265062
 20
0.5
 10
0.9012048192771088
 20
0.5
 10
0.930120481927711
 20
0.5
 10
0.9590361445783137
 20
0.5
 10
0.9879518072289161
 20
0.5
 10
1.0168674698795184
 20
0.5
 10
1.0457831325301208
 20
0.5
 10
1.0746987951807232
 20
0.5
 10
1.1036144578313256
 20
0.5
 10
1.132530120481928
 20
0.5
 10
1.1614457831325304
 20
0.5
 10
1.1903614457831329
 20
0.5
 10
1.2192771084337353
 20
0.5
 10
1.2481927710843377
 20
0.5
 10
1.27710843373494
 20
0.5
 10
1.3060240963855425
 20
0.5
 10
1.334939759036145
 20
0.5
 10
1.3638554216867473
 20
0.5
 10
1.3927710843373498
 20
0.5
 10
1.4216867469879522
 20
0.5
 10
1.4506024096385546
 20
0.5
 10
1.479518072289157
 20
0.5
 10
1.5084337349397594
 20
0.5
 10
1.5373493975903618
 20
0.5
 10
1.5662650602409642
 20
0.5
 10
1.5951807228915666
 20
0.5
 10
1.624096385542169
 20
0.5
 10
1.6530120481927715
 20
0.5
 10
1.681927710843374
 20
0.5
 10
1.7108433734939763
 20
0.5
 10
1.7397590361445792
 20
0.5
 10
1.7686746987951811
 20
0.5
 10
1.7975903614457835
 20
0.5
 10
1.8265060240963864
 20
0.5
 10
1.8554216867469884
 20
0.5
 10
1.8843373493975908
 20
0.5
 10
1.9132530120481932
 20
0.5
 10
1.9421686746987956
 20
0.5
 10
1.971084337349398
 20
0.5
 10
2.0000000000000004
 20
0.5
 10
2.0289156626506033
 20
0.5
 10
2.0578313253012053
 20
0.5
 10
2.0867469879518077
 20
0.5
 10
2.1156626506024105
 20
0.5
 10
2.1445783132530125
 20
0.5
 10
2.173493975903615
 20
0.5
 10
2.202409638554218
 20
0.5
 10
2.2313253012048198
 20
0.5
 10
2.260240963855422
 20
0.5
 10
2.289156626506025
 20
0.5
 10
2.3180722891566274
 20
0.5
 10
2.3469879518072294
 20
0.5
 10
2.3759036144578323
 20
0.5
 10
2.4048192771084347
 20
0.5
 10
2.4337349397590367
 20
0.5
 10
2.462650602409639
 20
0.5
 10
2.491566265060242
 20
0.5
 10
2.520481927710844
 20
0.5
 10
2.5493975903614463
 20
0.5
 10
2.578313253012049
 20
0.5
 10
2.607228915662651
 20
0.5
 10
2.6361445783132536
 20
0.5
 10
2.6650602409638564
 20
0.5
 10
2.6939759036144584
 20
0.5
 10
2.722891566265061
 20
0.5
 10
2.7518072289156637
 20
0.5
 10
2.7807228915662656
 20
0.5
 10
2.809638554216868
 20
0.5
 10
2.838554216867471
 20
0.5
 10
2.867469879518073
 20
0.5
 10
2.8963855421686753
 20
0.5
 10
2.925301204819278
 20
0.5
 10
2.95421686746988
 20
0.5
 10
2.9831325301204825
 20
0.5
 10
3.0120481927710854
 20
0.5
 10
3.0409638554216873
 20
0.5
 10
3.0698795180722898
 20
0.5
 10
3.0987951807228926
 20
0.5
 10
3.1277108433734946
 20
0.5
 10
3.156626506024097
 20
0.5
 10
3.1855421686747
 20
0.5
 10
3.214457831325302
 20
0.5
 10
3.2433734939759042
 20
0.5
 10
3.272289156626507
 20
0.5
 10
3.301204819277109
 20
0.5
 10
3.3301204819277115
 20
0.5
 10
3.3590361445783143
 20
0.5
 10
3.3879518072289163
 20
0.5
 10
3.4168674698795187
 20
0.5
 10
3.4457831325301216
 20
0.5
 10
3.4746987951807236
 20
0.5
 10
3.503614457831326
 20
0.5
 10
3.532530120481929
 20
0.5
 10
3.5614457831325312
 20
0.5
 10
3.590361445783133
 20
0.5
 10
3.6192771084337356
 20
0.5
 10
3.648192771084338
 20
0.5
 10
3.6771084337349405
 20
0.5
 10
3.706024096385543
 20
0.5
 10
3.7349397590361453
 20
0.5
 10
3.7638554216867477
 20
0.5
 10
3.79277108433735
 20
0.5
 10
3.8216867469879525
 20
0.5
 10
3.850602409638555
 20
0.5
 10
3.8795180722891582
 20
0.5
 10
3.9084337349397598
 20
0.5
 10
3.937349397590362
 20
0.5
 10
3.9662650602409655
 20
0.5
 10
3.995180722891567
 20
0.5
 10
4.024096385542169
 20
0.5
 10
4.053012048192772
 20
0.5
 10
4.081927710843374
 20
0.5
 10
4.110843373493976
 20
0.5
 10
4.1397590361445795
 20
0.5
 10
4.168674698795181
 20
0.5
 10
4.1975903614457835
 20
0.5
 10
4.226506024096386
 20
0.5
 10
4.255421686746988
 20
0.5
 10
4.284337349397591
 20
0.5
 10
4.313253012048193
 20
0.5
 10
4.3421686746987955
 20
0.5
 10
4.371084337349398
 20
0.5
 10
4.4
 20
0.5
 10
4.4
 20
0.5294117647058824
 10
4.4
 20
0.5588235294117647
 10
4.4
 20
0.5882352941176471
 10
4.4
 20
0.6176470588235294
 10
4.4
 20
0.6470588235294118
 10
4.4
 20
0.6764705882352942
 10
4.4
 20
0.7058823529411764
 10
4.4
 20
0.7352941176470589
 10
4.4
 20
0.7647058823529411
 10
4.4
 20
0.7941176470588236
 10
4.4
 20
0.8235294117647058
 10
4.4
 20
0.8529411764705882
 10
4.4
 20
0.8823529411764706
 10
4.4
 20
0.9117647058823529
 10
4.4
 20
0.9411764705882353
 10
4.4
 20
0.9705882352941176
 10
4.4
 20
1.0
 10
4.4
 20
1.0294117647058822
 10
4.4
 20
1.0588235294117647
 10
4.4
 20
1.0882352941176472
 10
4.4
 20
1.1176470588235294
 10
4.4
 20
1.1470588235294117
 10
4.4
 20
1.1764705882352942
 10
4.4
 20
1.2058823529411764
 10
4.4
 20
1.2352941176470589
 10
4.4
 20
1.2647058823529411
 10
4.4
 20
1.2941176470588234
 10
4.4
 20
1.3235294117647058
 10
4.4
 20
1.3529411764705883
 10
4.4
 20
1.3823529411764706
 10
4.4
 20
1.4117647058823528
 10
4.4
 20
1.4411764705882353
 10
4.4
 20
1.4705882352941178
 10
4.4
 20
1.5
 10
4.371084337349398
 20
1.5
 10
4.3421686746987955
 20
1.5
 10
4.313253012048193
 20
1.5
 10
4.284337349397591
 20
1.5
 10
4.255421686746988
 20
1.5
 10
4.226506024096386
 20
1.5
 10
4.1975903614457835
 20
1.5
 10
4.168674698795181
 20
1.5
 10
4.139759036144579
 20
1.5
 10
4.110843373493976
 20
1.5
 10
4.081927710843374
 20
1.5
 10
4.053012048192771
 20
1.5
 10
4.024096385542169
 20
1.5
 10
3.9951807228915666
 20
1.5
 10
3.966265060240964
 20
1.5
 10
3.9373493975903617
 20
1.5
 10
3.9084337349397593
 20
1.5
 10
3.879518072289157
 20
1.5
 10
3.8506024096385545
 20
1.5
 10
3.821686746987952
 20
1.5
 10
3.7927710843373497
 20
1.5
 10
3.7638554216867472
 20
1.5
 10
3.734939759036145
 20
1.5
 10
3.7060240963855424
 20
1.5
 10
3.67710843373494
 20
1.5
 10
3.6481927710843376
 20
1.5
 10
3.619277108433735
 20
1.5
 10
3.5903614457831328
 20
1.5
 10
3.5614457831325304
 20
1.5
 10
3.532530120481928
 20
1.5
 10
3.5036144578313255
 20
1.5
 10
3.474698795180723
 20
1.5
 10
3.4457831325301207
 20
1.5
 10
3.4168674698795183
 20
1.5
 10
3.387951807228916
 20
1.5
 10
3.3590361445783135
 20
1.5
 10
3.330120481927711
 20
1.5
 10
3.3012048192771086
 20
1.5
 10
3.272289156626506
 20
1.5
 10
3.243373493975904
 20
1.5
 10
3.2144578313253014
 20
1.5
 10
3.185542168674699
 20
1.5
 10
3.1566265060240966
 20
1.5
 10
3.127710843373494
 20
1.5
 10
3.0987951807228917
 20
1.5
 10
3.0698795180722893
 20
1.5
 10
3.040963855421687
 20
1.5
 10
3.0120481927710845
 20
1.5
 10
2.983132530120482
 20
1.5
 10
2.9542168674698797
 20
1.5
 10
2.9253012048192772
 20
1.5
 10
2.896385542168675
 20
1.5
 10
2.8674698795180724
 20
1.5
 10
2.83855421686747
 20
1.5
 10
2.8096385542168676
 20
1.5
 10
2.780722891566265
 20
1.5
 10
2.7518072289156628
 20
1.5
 10
2.7228915662650603
 20
1.5
 10
2.693975903614458
 20
1.5
 10
2.6650602409638555
 20
1.5
 10
2.636144578313253
 20
1.5
 10
2.6072289156626507
 20
1.5
 10
2.5783132530120483
 20
1.5
 10
2.549397590361446
 20
1.5
 10
2.5204819277108435
 20
1.5
 10
2.491566265060241
 20
1.5
 10
2.4626506024096386
 20
1.5
 10
2.433734939759036
 20
1.5
 10
2.404819277108434
 20
1.5
 10
2.3759036144578314
 20
1.5
 10
2.346987951807229
 20
1.5
 10
2.3180722891566266
 20
1.5
 10
2.289156626506024
 20
1.5
 10
2.2602409638554213
 20
1.5
 10
2.2313253012048193
 20
1.5
 10
2.202409638554217
 20
1.5
 10
2.173493975903614
 20
1.5
 10
2.144578313253012
 20
1.5
 10
2.1156626506024097
 20
1.5
 10
2.0867469879518072
 20
1.5
 10
2.057831325301205
 20
1.5
 10
2.0289156626506024
 20
1.5
 10
2.0
 20
1.5
 10
1.9710843373493971
 20
1.5
 10
1.9421686746987952
 20
1.5
 10
1.9132530120481928
 20
1.5
 10
1.88433734939759
 20
1.5
 10
1.855421686746988
 20
1.5
 10
1.8265060240963855
 20
1.5
 10
1.7975903614457827
 20
1.5
 10
1.7686746987951807
 20
1.5
 10
1.7397590361445783
 20
1.5
 10
1.7108433734939754
 20
1.5
 10
1.681927710843373
 20
1.5
 10
1.653012048192771
 20
1.5
 10
1.6240963855421682
 20
1.5
 10
1.5951807228915658
 20
1.5
 10
1.5662650602409638
 20
1.5
 10
1.5373493975903614
 20
1.5
 10
1.5084337349397585
 20
1.5
 10
1.4795180722891565
 20
1.5
 10
1.4506024096385541
 20
1.5
 10
1.4216867469879513
 20
1.5
 10
1.3927710843373493
 20
1.5
 10
1.363855421686747
 20
1.5
 10
1.334939759036144
 20
1.5
 10
1.306024096385542
 20
1.5
 10
1.2771084337349397
 20
1.5
 10
1.2481927710843368
 20
1.5
 10
1.2192771084337348
 20
1.5
 10
1.1903614457831324
 20
1.5
 10
1.1614457831325296
 20
1.5
 10
1.1325301204819276
 20
1.5
 10
1.1036144578313252
 20
1.5
 10
1.0746987951807223
 20
1.5
 10
1.0457831325301203
 20
1.5
 10
1.016867469879518
 20
1.5
 10
0.9879518072289151
 20
1.5
 10
0.9590361445783131
 20
1.5
 10
0.9301204819277107
 20
1.5
 10
0.9012048192771078
 20
1.5
 10
0.8722891566265059
 20
1.5
 10
0.8433734939759034
 20
1.5
 10
0.8144578313253006
 20
1.5
 10
0.7855421686746986
 20
1.5
 10
0.7566265060240962
 20
1.5
 10
0.7277108433734933
 20
1.5
 10
0.6987951807228914
 20
1.5
 10
0.669879518072289
 20
1.5
 10
0.6409638554216861
 20
1.5
 10
0.6120481927710841
 20
1.5
 10
0.5831325301204817
 20
1.5
 10
0.5542168674698789
 20
1.5
 10
0.5253012048192769
 20
1.5
 10
0.4963855421686745
 20
1.5
 10
0.4674698795180716
 20
1.5
 10
0.4385542168674692
 20
1.5
 10
0.40963855421686723
 20
1.5
 10
0.3807228915662648
 20
1.5
 10
0.3518072289156624
 20
1.5
 10
0.32289156626506
 20
1.5
 10
0.2939759036144576
 20
1.5
 10
0.26506024096385516
 20
1.5
 10
0.23614457831325275
 20
1.5
 10
0.20722891566265034
 20
1.5
 10
0.17831325301204792
 20
1.5
 10
0.1493975903614455
 20
1.5
 10
0.12048192771084221
 20
1.5
 10
0.09156626506024068
 20
1.5
 10
0.06265060240963827
 20
1.5
 10
0.033734939759034965
 20
1.5
 10
0.00481927710843344
 20
1.5
 10
-0.024096385542168974
 20
1.5
 10
-0.053012048192772276
 20
1.5
 10
-0.0819277108433738
 20
1.5
 10
-0.11084337349397622
 20
1.5
 10
-0.13975903614457952
 20
1.5
 10
-0.16867469879518104
 20
1.5
 10
-0.19759036144578346
 20
1.5
 10
-0.22650602409638587
 20
1.5
 10
-0.2554216867469883
 20
1.5
 10
-0.2843373493975907
 20
1.5
 10
-0.3132530120481931
 20
1.5
 10
-0.3421686746987955
 20
1.5
 10
-0.37108433734939794
 20
1.5
 10
-0.4
 20
1.5
 10
-0.4
 20
1.4705882352941178
 10
-0.4
 20
1.4411764705882353
 10
-0.4
 20
1.411764705882353
 10
-0.4
 20
1.3823529411764706
 10
-0.4
 20
1.3529411764705883
 10
-0.4
 20
1.3235294117647058
 10
-0.4
 20
1.2941176470588236
 10
-0.4
 20
1.2647058823529411
 10
-0.4
 20
1.2352941176470589
 10
-0.4
 20
1.2058823529411764
 10
-0.4
 20
1.1764705882352942
 10
-0.4
 20
1.1470588235294117
 10
-0.4
 20
1.1176470588235294
 10
-0.4
 20
1.0882352941176472
 10
-0.4
 20
1.0588235294117647
 10
-0.4
 20
1.0294117647058822
 10
-0.4
 20
1.0
 10
-0.4
 20
0.9705882352941176
 10
-0.4
 20
0.9411764705882353
 10
-0.4
 20
0.9117647058823529
 10
-0.4
 20
0.8823529411764706
 10
-0.4
 20
0.8529411764705882
 10
-0.4
 20
0.8235294117647058
 10
-0.4
 20
0.7941176470588236
 10
-0.4
 20
0.7647058823529412
 10
-0.4
 20
0.7352941176470589
 10
-0.4
 20
0.7058823529411765
 10
-0.4
 20
0.6764705882352942
 10
-0.4
 20
0.6470588235294118
 10
-0.4
 20
0.6176470588235294
 10
-0.4
 20
0.5882352941176471
 10
-0.4
 20
0.5588235294117647
 10
-0.4
 20
0.5294117647058824
  0
LWPOLYLINE
  5
30
330
17
100
AcDbEntity
  8
CUERPOS
100
AcDbPolyline
 90
180
 70
1
 10
1.3199999999999998
 20
1.0
 10
1.3199268992422915
 20
1.0041879396043
 10
1.319707686031179
 20
1.008370776849295
 10
1.3193426274441928
 20
1.0125434155921185
 10
1.3188321682489883
 20
1.016700772115208
 10
1.318176930361465
 20
1.0208377813200316
 10
1.3173777120880565
 20
1.0249494028981312
 10
1.3164354871531194
 20
1.02903062747196
 10
1.3153514035125982
 20
1.0330764826980399
 10
1.3141267819554183
 20
1.0370820393249938
 10
1.312763114494309
 20
1.0410424171990802
 10
1.3112620625480145
 20
1.0449527912099095
 10
1.309625454917112
 20
1.048808397169096
 10
1.3078552855559
 20
1.0526045376146893
 10
1.3059537111430712
 20
1.056336587534307
 10
1.3039230484541326
 20
1.06
 10
1.3017657715387712
 20
1.0635903117079846
 10
1.299484508706605
 20
1.0671031484164897
 10
1.2970820393249936
 20
1.0705342302750969
 10
1.2945612904328065
 20
1.0738793770390789
 10
1.2919253331742773
 20
1.0771345131623846
 10
1.2891773790572874
 20
1.080295672763063
 10
1.286320776040638
 20
1.0833590044550796
 10
1.2833590044550796
 20
1.0863207760406381
 10
1.280295672763063
 20
1.0891773790572874
 10
1.2771345131623846
 20
1.0919253331742773
 10
1.273879377039079
 20
1.0945612904328066
 10
1.2705342302750968
 20
1.0970820393249936
 10
1.2671031484164896
 20
1.099484508706605
 10
1.2635903117079845
 20
1.1017657715387712
 10
1.26
 20
1.1039230484541327
 10
1.2563365875343069
 20
1.1059537111430713
 10
1.2526045376146893
 20
1.1078552855559
 10
1.248808397169096
 20
1.109625454917112
 10
1.2449527912099094
 20
1.1112620625480145
 10
1.2410424171990802
 20
1.112763114494309
 10
1.2370820393249937
 20
1.1141267819554184
 10
1.2330764826980398
 20
1.1153514035125982
 10
1.22903062747196
 20
1.1164354871531197
 10
1.2249494028981311
 20
1.1173777120880566
 10
1.2208377813200315
 20
1.118176930361465
 10
1.2167007721152079
 20
1.1188321682489883
 10
1.2125434155921184
 20
1.1193426274441929
 10
1.208370776849295
 20
1.119707686031179
 10
1.2041879396043
 20
1.1199268992422915
 10
1.2
 20
1.12
 10
1.1958120603956999
 20
1.1199268992422915
 10
1.1916292231507049
 20
1.119707686031179
 10
1.1874565844078815
 20
1.1193426274441929
 10
1.183299227884792
 20
1.1188321682489883
 10
1.1791622186799684
 20
1.118176930361465
 10
1.1750505971018688
 20
1.1173777120880566
 10
1.17096937252804
 20
1.1164354871531197
 10
1.16692351730196
 20
1.1153514035125982
 10
1.1629179606750062
 20
1.1141267819554184
 10
1.1589575828009198
 20
1.112763114494309
 10
1.1550472087900905
 20
1.1112620625480145
 10
1.151191602830904
 20
1.109625454917112
 10
1.1473954623853106
 20
1.1078552855559
 10
1.143663412465693
 20
1.1059537111430713
 10
1.14
 20
1.1039230484541327
 10
1.1364096882920154
 20
1.1017657715387712
 10
1.1328968515835103
 20
1.099484508706605
 10
1.129465769724903
 20
1.0970820393249936
 10
1.1261206229609209
 20
1.0945612904328066
 10
1.1228654868376153
 20
1.0919253331742773
 10
1.119704327236937
 20
1.0891773790572874
 10
1.1166409955449204
 20
1.0863207760406381
 10
1.1136792239593618
 20
1.0833590044550796
 10
1.1108226209427128
 20
1.080295672763063
 10
1.1080746668257226
 20
1.0771345131623846
 10
1.1054387095671934
 20
1.073879377039079
 10
1.1029179606750064
 20
1.0705342302750969
 10
1.100515491293395
 20
1.0671031484164897
 10
1.0982342284612288
 20
1.0635903117079846
 10
1.0960769515458673
 20
1.06
 10
1.0940462888569287
 20
1.056336587534307
 10
1.0921447144440999
 20
1.0526045376146893
 10
1.090374545082888
 20
1.048808397169096
 10
1.0887379374519854
 20
1.0449527912099095
 10
1.0872368855056909
 20
1.0410424171990802
 10
1.0858732180445816
 20
1.0370820393249938
 10
1.0846485964874018
 20
1.0330764826980399
 10
1.0835645128468805
 20
1.02903062747196
 10
1.0826222879119434
 20
1.0249494028981312
 10
1.081823069638535
 20
1.0208377813200316
 10
1.0811678317510116
 20
1.016700772115208
 10
1.080657372555807
 20
1.0125434155921185
 10
1.080292313968821
 20
1.008370776849295
 10
1.0800731007577085
 20
1.0041879396043
 10
1.08
 20
1.0
 10
1.0800731007577085
 20
0.9958120603956999
 10
1.080292313968821
 20
0.991629223150705
 10
1.080657372555807
 20
0.9874565844078815
 10
1.0811678317510116
 20
0.9832992278847922
 10
1.081823069638535
 20
0.9791622186799683
 10
1.0826222879119434
 20
0.9750505971018688
 10
1.0835645128468805
 20
0.9709693725280399
 10
1.0846485964874018
 20
0.9669235173019601
 10
1.0858732180445816
 20
0.9629179606750063
 10
1.0872368855056909
 20
0.9589575828009198
 10
1.0887379374519854
 20
0.9550472087900905
 10
1.090374545082888
 20
0.951191602830904
 10
1.0921447144440999
 20
0.9473954623853107
 10
1.0940462888569287
 20
0.9436634124656931
 10
1.0960769515458673
 20
0.94
 10
1.0982342284612288
 20
0.9364096882920154
 10
1.100515491293395
 20
0.9328968515835104
 10
1.1029179606750064
 20
0.9294657697249032
 10
1.1054387095671934
 20
0.926120622960921
 10
1.1080746668257226
 20
0.9228654868376153
 10
1.1108226209427126
 20
0.919704327236937
 10
1.1136792239593618
 20
0.9166409955449203
 10
1.1166409955449204
 20
0.9136792239593619
 10
1.119704327236937
 20
0.9108226209427127
 10
1.1228654868376151
 20
0.9080746668257227
 10
1.126120622960921
 20
0.9054387095671933
 10
1.129465769724903
 20
0.9029179606750063
 10
1.1328968515835103
 20
0.900515491293395
 10
1.1364096882920154
 20
0.8982342284612289
 10
1.14
 20
0.8960769515458674
 10
1.143663412465693
 20
0.8940462888569287
 10
1.1473954623853106
 20
0.8921447144440999
 10
1.151191602830904
 20
0.8903745450828879
 10
1.1550472087900905
 20
0.8887379374519855
 10
1.1589575828009198
 20
0.887236885505691
 10
1.1629179606750062
 20
0.8858732180445816
 10
1.16692351730196
 20
0.8846485964874017
 10
1.17096937252804
 20
0.8835645128468804
 10
1.1750505971018688
 20
0.8826222879119433
 10
1.1791622186799684
 20
0.8818230696385351
 10
1.183299227884792
 20
0.8811678317510115
 10
1.1874565844078815
 20
0.8806573725558072
 10
1.1916292231507049
 20
0.8802923139688211
 10
1.1958120603956999
 20
0.8800731007577085
 10
1.2
 20
0.88
 10
1.2041879396043
 20
0.8800731007577085
 10
1.208370776849295
 20
0.8802923139688211
 10
1.2125434155921184
 20
0.8806573725558072
 10
1.2167007721152079
 20
0.8811678317510115
 10
1.2208377813200315
 20
0.8818230696385351
 10
1.2249494028981311
 20
0.8826222879119433
 10
1.22903062747196
 20
0.8835645128468804
 10
1.2330764826980398
 20
0.8846485964874018
 10
1.2370820393249937
 20
0.8858732180445815
 10
1.2410424171990802
 20
0.887236885505691
 10
1.2449527912099094
 20
0.8887379374519855
 10
1.248808397169096
 20
0.8903745450828878
 10
1.2526045376146893
 20
0.8921447144440999
 10
1.2563365875343069
 20
0.8940462888569287
 10
1.26
 20
0.8960769515458674
 10
1.2635903117079845
 20
0.8982342284612288
 10
1.2671031484164896
 20
0.900515491293395
 10
1.2705342302750966
 20
0.9029179606750063
 10
1.273879377039079
 20
0.9054387095671934
 10
1.2771345131623846
 20
0.9080746668257227
 10
1.2802956727630628
 20
0.9108226209427126
 10
1.2833590044550796
 20
0.9136792239593619
 10
1.286320776040638
 20
0.9166409955449203
 10
1.2891773790572874
 20
0.9197043272369371
 10
1.2919253331742773
 20
0.9228654868376153
 10
1.2945612904328065
 20
0.926120622960921
 10
1.2970820393249936
 20
0.9294657697249032
 10
1.299484508706605
 20
0.9328968515835104
 10
1.3017657715387712
 20
0.9364096882920154
 10
1.3039230484541326
 20
0.94
 10
1.3059537111430712
 20
0.9436634124656931
 10
1.3078552855559
 20
0.9473954623853107
 10
1.309625454917112
 20
0.951191602830904
 10
1.3112620625480145
 20
0.9550472087900905
 10
1.312763114494309
 20
0.9589575828009198
 10
1.3141267819554183
 20
0.9629179606750062
 10
1.3153514035125982
 20
0.9669235173019601
 10
1.3164354871531194
 20
0.9709693725280398
 10
1.3173777120880565
 20
0.9750505971018688
 10
1.318176930361465
 20
0.9791622186799683
 10
1.3188321682489883
 20
0.9832992278847921
 10
1.3193426274441928
 20
0.9874565844078816
 10
1.319707686031179
 20
0.9916292231507049
 10
1.3199268992422915
 20
0.9958120603956999
  0
ENDSEC
  0
SECTION
  2
OBJECTS
  0
DICTIONARY
  5
A
330
0
100
AcDbDictionary
281
1
  3
ACAD_COLOR
350
B
  3
ACAD_GROUP
350
C
  3
ACAD_LAYOUT
350
D
  3
ACAD_MATERIAL
350
E
  3
ACAD_MLEADERSTYLE
350
F
  3
ACAD_MLINESTYLE
350
10
  3
ACAD_PLOTSETTINGS
350
11
  3
ACAD_PLOTSTYLENAME
350
12
  3
ACAD_SCALELIST
350
14
  3
ACAD_TABLESTYLE
350
15
  3
ACAD_VISUALSTYLE
350
16
  3
EZDXF_META
350
2D
  0
DICTIONARY
  5
B
330
A
100
AcDbDictionary
281
1
  0
DICTIONARY
  5
C
330
A
100
AcDbDictionary
281
1
  0
DICTIONARY
  5
D
330
A
100
AcDbDictionary
281
1
  3
Model
350
1A
  3
Layout1
350
1E
  0
DICTIONARY
  5
E
330
A
100
AcDbDictionary
281
1
  3
ByBlock
350
1F
  3
ByLayer
350
20
  3
Global
350
21
  0
DICTIONARY
  5
F
330
A
100
AcDbDictionary
281
1
  3
Standard
350
2C
  0
DICTIONARY
  5
10
330
A
100
AcDbDictionary
281
1
  3
Standard
350
22
  0
DICTIONARY
  5
11
330
A
100
AcDbDictionary
281
1
  0
ACDBDICTIONARYWDFLT
  5
12
330
A
100
AcDbDictionary
281
1
  3
Normal
350
13
100
AcDbDictionaryWithDefault
340
13
  0
ACDBPLACEHOLDER
  5
13
330
12
  0
DICTIONARY
  5
14
330
A
100
AcDbDictionary
281
1
  0
DICTIONARY
  5
15
330
A
100
AcDbDictionary
281
1
  0
DICTIONARY
  5
16
330
A
100
AcDbDictionary
281
1
  0
LAYOUT
  5
1A
330
D
100
AcDbPlotSettings
  1

  4
A3
  6

 40
7.5
 41
20.0
 42
7.5
 43
20.0
 44
420.0
 45
297.0
 46
0.0
 47
0.0
 48
0.0
 49
0.0
140
0.0
141
0.0
142
1.0
143
1.0
 70
1024
 72
1
 73
0
 74
5
  7

 75
16
 76
0
 77
2
 78
300
147
1.0
148
0.0
149
0.0
100
AcDbLayout
  1
Model
 70
1
 71
0
 10
0.0
 20
0.0
 11
420.0
 21
297.0
 12
0.0
 22
0.0
 32
0.0
 14
1e+20
 24
1e+20
 34
1e+20
 15
-1e+20
 25
-1e+20
 35
-1e+20
146
0.0
 13
0.0
 23
0.0
 33
0.0
 16
1.0
 26
0.0
 36
0.0
 17
0.0
 27
1.0
 37
0.0
 76
1
330
17
  0
LAYOUT
  5
1E
330
D
100
AcDbPlotSettings
  1

  4
A3
  6

 40
7.5
 41
20.0
 42
7.5
 43
20.0
 44
420.0
 45
297.0
 46
0.0
 47
0.0
 48
0.0
 49
0.0
140
0.0
141
0.0
142
1.0
143
1.0
 70
0
 72
1
 73
0
 74
5
  7

 75
16
 76
0
 77
2
 78
300
147
1.0
148
0.0
149
0.0
100
AcDbLayout
  1
Layout1
 70
1
 71
1
 10
0.0
 20
0.0
 11
420.0
 21
297.0
 12
0.0
 22
0.0
 32
0.0
 14
1e+20
 24
1e+20
 34
1e+20
 15
-1e+20
 25
-1e+20
 35
-1e+20
146
0.0
 13
0.0
 23
0.0
 33
0.0
 16
1.0
 26
0.0
 36
0.0
 17
0.0
 27
1.0
 37
0.0
 76
1
330
1B
  0
MATERIAL
  5
1F
102
{ACAD_REACTORS
330
E
102
}
330
E
100
AcDbMaterial
  1
ByBlock
  2

 70
0
 40
1.0
 71
1
 41
1.0
 91
-1023410177
 42
1.0
 72
1
  3

 73
1
 74
1
 75
1
 44
0.5
 73
0
 45
1.0
 46
1.0
 77
1
  4

 78
1
 79
1
170
1
 48
1.0
171
1
  6

172
1
173
1
174
1
140
1.0
141
1.0
175
1
  7

176
1
177
1
178
1
143
1.0
179
1
  8

270
1
271
1
272
1
145
1.0
146
1.0
273
1
  9

274
1
275
1
276
1
 42
1.0
 72
1
  3

 73
1
 74
1
 75
1
 94
63
  0
MATERIAL
  5
20
102
{ACAD_REACTORS
330
E
102
}
330
E
100
AcDbMaterial
  1
ByLayer
  2

 70
0
 40
1.0
 71
1
 41
1.0
 91
-1023410177
 42
1.0
 72
1
  3

 73
1
 74
1
 75
1
 44
0.5
 73
0
 45
1.0
 46
1.0
 77
1
  4

 78
1
 79
1
170
1
 48
1.0
171
1
  6

172
1
173
1
174
1
140
1.0
141
1.0
175
1
  7

176
1
177
1
178
1
143
1.0
179
1
  8

270
1
271
1
272
1
145
1.0
146
1.0
273
1
  9

274
1
275
1
276
1
 42
1.0
 72
1
  3

 73
1
 74
1
 75
1
 94
63
  0
MATERIAL
  5
21
102
{ACAD_REACTORS
330
E
102
}
330
E
100
AcDbMaterial
  1
Global
  2

 70
0
 40
1.0
 71
1
 41
1.0
 91
-1023410177
 42
1.0
 72
1
  3

 73
1
 74
1
 75
1
 44
0.5
 73
0
 45
1.0
 46
1.0
 77
1
  4

 78
1
 79
1
170
1
 48
1.0
171
1
  6

172
1
173
1
174
1
140
1.0
141
1.0
175
1
  7

176
1
177
1
178
1
143
1.0
179
1
  8

270
1
271
1
272
1
145
1.0
146
1.0
273
1
  9

274
1
275
1
276
1
 42
1.0
 72
1
  3

 73
1
 74
1
 75
1
 94
63
  0
MLINESTYLE
  5
22
102
{ACAD_REACTORS
330
10
102
}
330
10
100
AcDbMlineStyle
  2
Standard
 70
0
  3

 62
256
 51
90.0
 52
90.0
 71
2
 49
0.5
 62
256
  6
BYLAYER
 49
-0.5
 62
256
  6
BYLAYER
  0
MLEADERSTYLE
  5
2C
102
{ACAD_REACTORS
330
F
102
}
330
F
100
AcDbMLeaderStyle
179
2
170
2
171
1
172
0
 90
2
 40
0.0
 41
0.0
173
1
 91
-1056964608
 92
-2
290
1
 42
2.0
291
1
 43
8.0
  3
Standard
 44
4.0
300

342
29
174
1
175
1
176
0
178
1
 93
-1056964608
 45
4.0
292
0
297
0
 46
4.0
 94
-1056964608
 47
1.0
 49
1.0
140
1.0
294
1
141
0.0
177
0
142
1.0
295
0
296
0
143
3.75
271
0
272
9
273
9
  0
DICTIONARY
  5
2D
330
A
100
AcDbDictionary
280
1
281
1
  3
CREATED_BY_EZDXF
350
2E
  3
WRITTEN_BY_EZDXF
350
33
  0
DICTIONARYVAR
  5
2E
330
2D
100
DictionaryVariables
280
0
  1
1.4.4 @ 2026-09-01T01:16:51.887874+00:00
  0
DICTIONARYVAR
  5
33
330
2D
100
DictionaryVariables
280
0
  1
1.4.4 @ 2026-09-01T01:16:51.890186+00:00
  0
ENDSEC
  0
EOF
