  0
SECTION
  2
HEADER
  9
$ACADVER
  1
AC1024
  9
$ACADMAINTVER
 70
6
  9
$DWGCODEPAGE
  3
ANSI_1252
  9
$LASTSAVEDBY
  1
ezdxf
  9
$INSBASE
 10
0.0
 20
0.0
 30
0.0
  9
$EXTMIN
 10
1e+20
 20
1e+20
 30
1e+20
  9
$EXTMAX
 10
-1e+20
 20
-1e+20
 30
-1e+20
  9
$LIMMIN
 10
0.0
 20
0.0
  9
$LIMMAX
 10
420.0
 20
297.0
  9
$ORTHOMODE
 70
0
  9
$REGENMODE
 70
1
  9
$FILLMODE
 70
1
  9
$QTEXTMODE
 70
0
  9
$MIRRTEXT
 70
1
  9
$LTSCALE
 40
1.0
  9
$ATTMODE
 70
1
  9
$TEXTSIZE
 40
2.5
  9
$TRACEWID
 40
1.0
  9
$TEXTSTYLE
  7
Standard
  9
$CLAYER
  8
0
  9
$CELTYPE
  6
ByLayer
  9
$CECOLOR
 62
256
  9
$CELTSCALE
 40
1.0
  9
$DISPSILH
 70
0
  9
$DIMSCALE
 40
1.0
  9
$DIMASZ
 40
2.5
  9
$DIMEXO
 40
0.625
  9
$DIMDLI
 40
3.75
  9
$DIMRND
 40
0.0
  9
$DIMDLE
 40
0.0
  9
$DIMEXE
 40
1.25
  9
$DIMTP
 40
0.0
  9
$DIMTM
 40
0.0
  9
$DIMTXT
 40
2.5
  9
$DIMCEN
 40
2.5
  9
$DIMTSZ
 40
0.0
  9
$DIMTOL
 70
0
  9
$DIMLIM
 70
0
  9
$DIMTIH
 70
0
  9
$DIMTOH
 70
0
  9
$DIMSE1
 70
0
  9
$DIMSE2
 70
0
  9
$DIMTAD
 70
1
  9
$DIMZIN
 70
8
  9
$DIMBLK
  1

  9
$DIMASO
 70
1
  9
$DIMSHO
 70
1
  9
$DIMPOST
  1

  9
$DIMAPOST
  1

  9
$DIMALT
 70
0
  9
$DIMALTD
 70
3
  9
$DIMALTF
 40
0.03937007874
  9
$DIMLFAC
 40
1.0
  9
$DIMTOFL
 70
1
  9
$DIMTVP
 40
0.0
  9
$DIMTIX
 70
0
  9
$DIMSOXD
 70
0
  9
$DIMSAH
 70
0
  9
$DIMBLK1
  1

  9
$DIMBLK2
  1

  9
$DIMSTYLE
  2
ISO-25
  9
$DIMCLRD
 70
0
  9
$DIMCLRE
 70
0
  9
$DIMCLRT
 70
0
  9
$DIMTFAC
 40
1.0
  9
$DIMGAP
 40
0.625
  9
$DIMJUST
 70
0
  9
$DIMSD1
 70
0
  9
$DIMSD2
 70
0
  9
$DIMTOLJ
 70
0
  9
$DIMTZIN
 70
8
  9
$DIMALTZ
 70
0
  9
$DIMALTTZ
 70
0
  9
$DIMUPT
 70
0
  9
$DIMDEC
 70
2
  9
$DIMTDEC
 70
2
  9
$DIMALTU
 70
2
  9
$DIMALTTD
 70
3
  9
$DIMTXSTY
  7
Standard
  9
$DIMAUNIT
 70
0
  9
$DIMADEC
 70
0
  9
$DIMALTRND
 40
0.0
  9
$DIMAZIN
 70
0
  9
$DIMDSEP
 70
44
  9
$DIMATFIT
 70
3
  9
$DIMFRAC
 70
0
  9
$DIMLDRBLK
  1

  9
$DIMLUNIT
 70
2
  9
$DIMLWD
 70
-2
  9
$DIMLWE
 70
-2
  9
$DIMTMOVE
 70
0
  9
$DIMFXL
 40
1.0
  9
$DIMFXLON
 70
0
  9
$DIMJOGANG
 40
0.785398163397
  9
$DIMTFILL
 70
0
  9
$DIMTFILLCLR
 70
0
  9
$DIMARCSYM
 70
0
  9
$DIMLTYPE
  6

  9
$DIMLTEX1
  6

  9
$DIMLTEX2
  6

  9
$DIMTXTDIRECTION
 70
0
  9
$LUNITS
 70
2
  9
$LUPREC
 70
4
  9
$SKETCHINC
 40
1.0
  9
$FILLETRAD
 40
10.0
  9
$AUNITS
 70
0
  9
$AUPREC
 70
2
  9
$MENU
  1
.
  9
$ELEVATION
 40
0.0
  9
$PELEVATION
 40
0.0
  9
$THICKNESS
 40
0.0
  9
$LIMCHECK
 70
0
  9
$CHAMFERA
 40
0.0
  9
$CHAMFERB
 40
0.0
  9
$CHAMFERC
 40
0.0
  9
$CHAMFERD
 40
0.0
  9
$SKPOLY
 70
0
  9
$TDCREATE
 40
2461285.1367013888
  9
$TDUCREATE
 40
2458532.153996898
  9
$TDUPDATE
 40
2461285.1367013888
  9
$TDUUPDATE
 40
2458532.1544311
  9
$TDINDWG
 40
0.0
  9
$TDUSRTIMER
 40
0.0
  9
$USRTIMER
 70
1
  9
$ANGBASE
 50
0.0
  9
$ANGDIR
 70
0
  9
$PDMODE
 70
0
  9
$PDSIZE
 40
0.0
  9
$PLINEWID
 40
0.0
  9
$SPLFRAME
 70
0
  9
$SPLINETYPE
 70
6
  9
$SPLINESEGS
 70
8
  9
$HANDSEED
  5
33
  9
$SURFTAB1
 70
6
  9
$SURFTAB2
 70
6
  9
$SURFTYPE
 70
6
  9
$SURFU
 70
6
  9
$SURFV
 70
6
  9
$UCSBASE
  2

  9
$UCSNAME
  2

  9
$UCSORG
 10
0.0
 20
0.0
 30
0.0
  9
$UCSXDIR
 10
1.0
 20
0.0
 30
0.0
  9
$UCSYDIR
 10
0.0
 20
1.0
 30
0.0
  9
$UCSORTHOREF
  2

  9
$UCSORTHOVIEW
 70
0
  9
$UCSORGTOP
 10
0.0
 20
0.0
 30
0.0
  9
$UCSORGBOTTOM
 10
0.0
 20
0.0
 30
0.0
  9
$UCSORGLEFT
 10
0.0
 20
0.0
 30
0.0
  9
$UCSORGRIGHT
 10
0.0
 20
0.0
 30
0.0
  9
$UCSORGFRONT
 10
0.0
 20
0.0
 30
0.0
  9
$UCSORGBACK
 10
0.0
 20
0.0
 30
0.0
  9
$PUCSBASE
  2

  9
$PUCSNAME
  2

  9
$PUCSORG
 10
0.0
 20
0.0
 30
0.0
  9
$PUCSXDIR
 10
1.0
 20
0.0
 30
0.0
  9
$PUCSYDIR
 10
0.0
 20
1.0
 30
0.0
  9
$PUCSORTHOREF
  2

  9
$PUCSORTHOVIEW
 70
0
  9
$PUCSORGTOP
 10
0.0
 20
0.0
 30
0.0
  9
$PUCSORGBOTTOM
 10
0.0
 20
0.0
 30
0.0
  9
$PUCSORGLEFT
 10
0.0
 20
0.0
 30
0.0
  9
$PUCSORGRIGHT
 10
0.0
 20
0.0
 30
0.0
  9
$PUCSORGFRONT
 10
0.0
 20
0.0
 30
0.0
  9
$PUCSORGBACK
 10
0.0
 20
0.0
 30
0.0
  9
$USERI1
 70
0
  9
$USERI2
 70
0
  9
$USERI3
 70
0
  9
$USERI4
 70
0
  9
$USERI5
 70
0
  9
$USERR1
 40
0.0
  9
$USERR2
 40
0.0
  9
$USERR3
 40
0.0
  9
$USERR4
 40
0.0
  9
$USERR5
 40
0.0
  9
$WORLDVIEW
 70
1
  9
$SHADEDGE
 70
3
  9
$SHADEDIF
 70
70
  9
$TILEMODE
 70
1
  9
$MAXACTVP
 70
64
  9
$PINSBASE
 10
0.0
 20
0.0
 30
0.0
  9
$PLIMCHECK
 70
0
  9
$PEXTMIN
 10
1e+20
 20
1e+20
 30
1e+20
  9
$PEXTMAX
 10
-1e+20
 20
-1e+20
 30
-1e+20
  9
$PLIMMIN
 10
0.0
 20
0.0
  9
$PLIMMAX
 10
420.0
 20
297.0
  9
$UNITMODE
 70
0
  9
$VISRETAIN
 70
1
  9
$PLINEGEN
 70
0
  9
$PSLTSCALE
 70
1
  9
$TREEDEPTH
 70
3020
  9
$CMLSTYLE
  2
Standard
  9
$CMLJUST
 70
0
  9
$CMLSCALE
 40
20.0
  9
$PROXYGRAPHICS
 70
1
  9
$MEASUREMENT
 70
1
  9
$CELWEIGHT
370
-1
  9
$ENDCAPS
280
0
  9
$JOINSTYLE
280
0
  9
$LWDISPLAY
290
0
  9
$INSUNITS
 70
6
  9
$HYPERLINKBASE
  1

  9
$STYLESHEET
  1

  9
$XEDIT
290
1
  9
$CEPSNTYPE
380
0
  9
$PSTYLEMODE
290
1
  9
$FINGERPRINTGUID
  2
{BE916EEC-C83C-4F42-99D9-DCBB652B9873}
  9
$VERSIONGUID
  2
{ECF4DA1B-E109-4937-ABE5-E671C980B55E}
  9
$EXTNAMES
290
1
  9
$PSVPSCALE
 40
0.0
  9
$OLESTARTUP
290
0
  9
$SORTENTS
280
127
  9
$INDEXCTL
280
0
  9
$HIDETEXT
280
1
  9
$XCLIPFRAME
280
1
  9
$HALOGAP
280
0
  9
$OBSCOLOR
 70
257
  9
$OBSLTYPE
280
0
  9
$INTERSECTIONDISPLAY
280
0
  9
$INTERSECTIONCOLOR
 70
257
  9
$DIMASSOC
280
2
  9
$PROJECTNAME
  1

  9
$CAMERADISPLAY
290
0
  9
$LENSLENGTH
 40
50.0
  9
$CAMERAHEIGHT
 40
0.0
  9
$STEPSPERSEC
 40
24.0
  9
$STEPSIZE
 40
100.0
  9
$3DDWFPREC
 40
2.0
  9
$PSOLWIDTH
 40
0.005
  9
$PSOLHEIGHT
 40
0.08
  9
$LOFTANG1
 40
1.570796326795
  9
$LOFTANG2
 40
1.570796326795
  9
$LOFTMAG1
 40
0.0
  9
$LOFTMAG2
 40
0.0
  9
$LOFTPARAM
 70
7
  9
$LOFTNORMALS
280
1
  9
$LATITUDE
 40
37.795
  9
$LONGITUDE
 40
-122.394
  9
$NORTHDIRECTION
 40
0.0
  9
$TIMEZONE
 70
-8000
  9
$LIGHTGLYPHDISPLAY
280
1
  9
$TILEMODELIGHTSYNCH
280
1
  9
$CMATERIAL
347
20
  9
$SOLIDHIST
280
0
  9
$SHOWHIST
280
1
  9
$DWFFRAME
280
2
  9
$DGNFRAME
280
2
  9
$REALWORLDSCALE
290
1
  9
$INTERFERECOLOR
 62
256
  9
$CSHADOW
280
0
  9
$SHADOWPLANELOCATION
 40
0.0
  0
ENDSEC
  0
SECTION
  2
CLASSES
  0
CLASS
  1
ACDBDICTIONARYWDFLT
  2
AcDbDictionaryWithDefault
  3
ObjectDBX Classes
 90
0
 91
0
280
0
281
0
  0
CLASS
  1
SUN
  2
AcDbSun
  3
SCENEOE
 90
1153
 91
0
280
0
281
0
  0
CLASS
  1
VISUALSTYLE
  2
AcDbVisualStyle
  3
ObjectDBX Classes
 90
4095
 91
0
280
0
281
0
  0
CLASS
  1
MATERIAL
  2
AcDbMaterial
  3
ObjectDBX Classes
 90
1153
 91
0
280
0
281
0
  0
CLASS
  1
SCALE
  2
AcDbScale
  3
ObjectDBX Classes
 90
1153
 91
0
280
0
281
0
  0
CLASS
  1
TABLESTYLE
  2
AcDbTableStyle
  3
ObjectDBX Classes
 90
4095
 91
0
280
0
281
0
  0
CLASS
  1
MLEADERSTYLE
  2
AcDbMLeaderStyle
  3
ACDB_MLEADERSTYLE_CLASS
 90
4095
 91
0
280
0
281
0
  0
CLASS
  1
DICTIONARYVAR
  2
AcDbDictionaryVar
  3
ObjectDBX Classes
 90
0
 91
0
280
0
281
0
  0
CLASS
  1
CELLSTYLEMAP
  2
AcDbCellStyleMap
  3
ObjectDBX Classes
 90
1152
 91
0
280
0
281
0
  0
CLASS
  1
MENTALRAYRENDERSETTINGS
  2
AcDbMentalRayRenderSettings
  3
SCENEOE
 90
1024
 91
0
280
0
281
0
  0
CLASS
  1
ACDBDETAILVIEWSTYLE
  2
AcDbDetailViewStyle
  3
ObjectDBX Classes
 90
1025
 91
0
280
0
281
0
  0
CLASS
  1
ACDBSECTIONVIEWSTYLE
  2
AcDbSectionViewStyle
  3
ObjectDBX Classes
 90
1025
 91
0
280
0
281
0
  0
CLASS
  1
RASTERVARIABLES
  2
AcDbRasterVariables
  3
ISM
 90
0
 91
0
280
0
281
0
  0
CLASS
  1
ACDBPLACEHOLDER
  2
AcDbPlaceHolder
  3
ObjectDBX Classes
 90
0
 91
0
280
0
281
0
  0
CLASS
  1
LAYOUT
  2
AcDbLayout
  3
ObjectDBX Classes
 90
0
 91
0
280
0
281
0
  0
ENDSEC
  0
SECTION
  2
TABLES
  0
TABLE
  2
VPORT
  5
8
330
0
100
AcDbSymbolTable
 70
1
  0
VPORT
  5
23
330
8
100
AcDbSymbolTableRecord
100
AcDbViewportTableRecord
  2
*Active
 70
0
 10
0.0
 20
0.0
 11
1.0
 21
1.0
 12
0.0
 22
0.0
 13
0.0
 23
0.0
 14
0.5
 24
0.5
 15
0.5
 25
0.5
 16
0.0
 26
0.0
 36
1.0
 17
0.0
 27
0.0
 37
0.0
 40
1000.0
 41
1.34
 42
50.0
 43
0.0
 44
0.0
 50
0.0
 51
0.0
 71
0
 72
1000
 73
1
 74
3
 75
0
 76
0
 77
0
 78
0
281
0
 65
0
146
0.0
  0
ENDTAB
  0
TABLE
  2
LTYPE
  5
2
330
0
100
AcDbSymbolTable
 70
3
  0
LTYPE
  5
24
330
2
100
AcDbSymbolTableRecord
100
AcDbLinetypeTableRecord
  2
ByBlock
 70
0
  3

 72
65
 73
0
 40
0.0
  0
LTYPE
  5
25
330
2
100
AcDbSymbolTableRecord
100
AcDbLinetypeTableRecord
  2
ByLayer
 70
0
  3

 72
65
 73
0
 40
0.0
  0
LTYPE
  5
26
330
2
100
AcDbSymbolTableRecord
100
AcDbLinetypeTableRecord
  2
Continuous
 70
0
  3

 72
65
 73
0
 40
0.0
  0
ENDTAB
  0
TABLE
  2
LAYER
  5
1
330
0
100
AcDbSymbolTable
 70
2
  0
LAYER
  5
27
330
1
100
AcDbSymbolTableRecord
100
AcDbLayerTableRecord
  2
0
 70
0
 62
7
  6
Continuous
370
-3
390
13
347
21
  0
LAYER
  5
28
330
1
100
AcDbSymbolTableRecord
100
AcDbLayerTableRecord
  2
Defpoints
 70
0
 62
7
  6
Continuous
290
0
370
-3
390
13
347
21
  0
ENDTAB
  0
TABLE
  2
STYLE
  5
5
330
0
100
AcDbSymbolTable
 70
1
  0
STYLE
  5
29
330
5
100
AcDbSymbolTableRecord
100
AcDbTextStyleTableRecord
  2
Standard
 70
0
 40
0.0
 41
1.0
 50
0.0
 71
0
 42
2.5
  3
txt
  4

  0
ENDTAB
  0
TABLE
  2
VIEW
  5
7
330
0
100
AcDbSymbolTable
 70
0
  0
ENDTAB
  0
TABLE
  2
UCS
  5
6
330
0
100
AcDbSymbolTable
 70
0
  0
ENDTAB
  0
TABLE
  2
APPID
  5
3
330
0
100
AcDbSymbolTable
 70
3
  0
APPID
  5
2A
330
3
100
AcDbSymbolTableRecord
100
AcDbRegAppTableRecord
  2
ACAD
 70
0
  0
APPID
  5
30
330
3
100
AcDbSymbolTableRecord
100
AcDbRegAppTableRecord
  2
HATCHBACKGROUNDCOLOR
 70
0
  0
APPID
  5
31
330
3
100
AcDbSymbolTableRecord
100
AcDbRegAppTableRecord
  2
EZDXF
 70
0
  0
ENDTAB
  0
TABLE
  2
DIMSTYLE
  5
4
330
0
100
AcDbSymbolTable
 70
1
100
AcDbDimStyleTable
  0
DIMSTYLE
105
2B
330
4
100
AcDbSymbolTableRecord
100
AcDbDimStyleTableRecord
  2
Standard
 70
0
 40
1.0
 41
2.5
 42
0.625
 43
3.75
 44
1.25
 45
0.0
 46
0.0
 47
0.0
 48
0.0
 49
2.5
140
2.5
141
2.5
142
0.0
143
0.03937007874
144
1.0
145
0.0
146
1.0
147
0.625
148
0.0
 69
0
 70
0
 71
0
 72
0
 73
0
 74
0
 75
0
 76
0
 77
1
 78
8
 79
3
170
0
171
3
172
1
173
0
174
0
175
0
176
0
177
0
178
0
179
2
271
2
272
2
273
2
274
3
275
0
276
0
277
2
278
44
279
0
280
0
281
0
282
0
283
0
284
8
285
0
286
0
288
0
289
3
290
0
371
-2
372
-2
  0
ENDTAB
  0
TABLE
  2
BLOCK_RECORD
  5
9
330
0
100
AcDbSymbolTable
 70
2
  0
BLOCK_RECORD
  5
17
330
9
100
AcDbSymbolTableRecord
100
AcDbBlockTableRecord
  2
*Model_Space
340
1A
 70
0
280
1
281
0
  0
BLOCK_RECORD
  5
1B
330
9
100
AcDbSymbolTableRecord
100
AcDbBlockTableRecord
  2
*Paper_Space
340
1E
 70
0
280
1
281
0
  0
ENDTAB
  0
ENDSEC
  0
SECTION
  2
BLOCKS
  0
BLOCK
  5
18
330
17
100
AcDbEntity
  8
0
100
AcDbBlockBegin
  2
*Model_Space
 70
0
 10
0.0
 20
0.0
 30
0.0
  3
*Model_Space
  1

  0
ENDBLK
  5
19
330
17
100
AcDbEntity
  8
0
100
AcDbBlockEnd
  0
BLOCK
  5
1C
330
1B
100
AcDbEntity
  8
0
100
AcDbBlockBegin
  2
*Paper_Space
 70
0
 10
0.0
 20
0.0
 30
0.0
  3
*Paper_Space
  1

  0
ENDBLK
  5
1D
330
1B
100
AcDbEntity
  8
0
100
AcDbBlockEnd
  0
ENDSEC
  0
SECTION
  2
ENTITIES
  0
LWPOLYLINE
  5
2F
330
17
100
AcDbEntity
  8
PAREDES
100
AcDbPolyline
 90
802
 70
1
 10
-0.4
 20
1.6
 10
-0.4
 20
0.4
 10
-0.386
 20
0.4
 10
-0.372
 20
0.4
 10
-0.35800000000000004
 20
0.4
 10
-0.34400000000000003
 20
0.4
 10
-0.33
 20
0.4
 10
-0.31600000000000006
 20
0.4
 10
-0.30200000000000005
 20
0.4
 10
-0.28800000000000003
 20
0.4
 10
-0.274
 20
0.4
 10
-0.26
 20
0.4
 10
-0.24600000000000005
 20
0.4
 10
-0.23200000000000004
 20
0.4
 10
-0.21800000000000003
 20
0.4
 10
-0.20400000000000004
 20
0.4
 10
-0.19000000000000006
 20
0.4
 10
-0.17600000000000005
 20
0.4
 10
-0.16200000000000003
 20
0.4
 10
-0.14800000000000002
 20
0.4
 10
-0.13400000000000006
 20
0.4
 10
-0.12000000000000005
 20
0.4
 10
-0.10600000000000004
 20
0.4
 10
-0.09200000000000008
 20
0.4
 10
-0.07800000000000007
 20
0.4
 10
-0.06400000000000006
 20
0.4
 10
-0.050000000000000044
 20
0.4
 10
-0.03600000000000003
 20
0.4
 10
-0.022000000000000075
 20
0.4
 10
-0.008000000000000063
 20
0.4
 10
0.00599999999999995
 20
0.4
 10
0.019999999999999907
 20
0.4
 10
0.03399999999999992
 20
0.4
 10
0.04799999999999993
 20
0.4
 10
0.061999999999999944
 20
0.4
 10
0.07599999999999996
 20
0.4
 10
0.08999999999999991
 20
0.4
 10
0.10399999999999998
 20
0.4
 10
0.11799999999999988
 20
0.4
 10
0.1319999999999999
 20
0.4
 10
0.1459999999999999
 20
0.4
 10
0.15999999999999992
 20
0.4
 10
0.17399999999999993
 20
0.4
 10
0.18799999999999994
 20
0.4
 10
0.20199999999999996
 20
0.4
 10
0.21599999999999986
 20
0.4
 10
0.22999999999999987
 20
0.4
 10
0.24399999999999988
 20
0.4
 10
0.2579999999999999
 20
0.4
 10
0.2719999999999999
 20
0.4
 10
0.2859999999999999
 20
0.4
 10
0.29999999999999993
 20
0.4
 10
0.31399999999999995
 20
0.4
 10
0.32799999999999996
 20
0.4
 10
0.34199999999999986
 20
0.4
 10
0.35599999999999987
 20
0.4
 10
0.3699999999999999
 20
0.4
 10
0.3839999999999999
 20
0.4
 10
0.3979999999999999
 20
0.4
 10
0.4119999999999999
 20
0.4
 10
0.42599999999999993
 20
0.4
 10
0.43999999999999984
 20
0.4
 10
0.45399999999999985
 20
0.4
 10
0.46799999999999986
 20
0.4
 10
0.4819999999999999
 20
0.4
 10
0.4959999999999999
 20
0.4
 10
0.5099999999999999
 20
0.4
 10
0.5239999999999999
 20
0.4
 10
0.5379999999999999
 20
0.4
 10
0.5519999999999999
 20
0.4
 10
0.5659999999999998
 20
0.4
 10
0.5799999999999998
 20
0.4
 10
0.5939999999999999
 20
0.4
 10
0.608
 20
0.4
 10
0.6219999999999998
 20
0.4
 10
0.6359999999999998
 20
0.4
 10
0.6499999999999998
 20
0.4
 10
0.6639999999999998
 20
0.4
 10
0.6779999999999998
 20
0.4
 10
0.6919999999999998
 20
0.4
 10
0.7059999999999998
 20
0.4
 10
0.7199999999999999
 20
0.4
 10
0.7339999999999999
 20
0.4
 10
0.7479999999999999
 20
0.4
 10
0.7619999999999999
 20
0.4
 10
0.7759999999999999
 20
0.4
 10
0.7899999999999999
 20
0.4
 10
0.8039999999999999
 20
0.4
 10
0.818
 20
0.4
 10
0.8319999999999997
 20
0.4
 10
0.8459999999999998
 20
0.4
 10
0.8599999999999998
 20
0.4
 10
0.8739999999999998
 20
0.4
 10
0.8879999999999998
 20
0.4
 10
0.9019999999999998
 20
0.4
 10
0.9159999999999998
 20
0.4
 10
0.9299999999999998
 20
0.4
 10
0.9439999999999998
 20
0.4
 10
0.9579999999999999
 20
0.4
 10
0.9719999999999999
 20
0.4
 10
0.9859999999999999
 20
0.4
 10
1.0
 20
0.4
 10
1.01
 20
0.40001850512775095
 10
1.02
 20
0.40007401594514025
 10
1.03
 20
0.4001665187557045
 10
1.04
 20
0.4002959907357593
 10
1.05
 20
0.40046239994003086
 10
1.06
 20
0.40066570530953804
 10
1.07
 20
0.40090585668172307
 10
1.08
 20
0.40118279480282837
 10
1.09
 20
0.40149645134251644
 10
1.1
 20
0.40184674891072936
 10
1.11
 20
0.40223360107678396
 10
1.12
 20
0.4026569123906967
 10
1.13
 20
0.4031165784067351
 10
1.1400000000000001
 20
0.40361248570918795
 10
1.15
 20
0.4041445119403485
 10
1.16
 20
0.4047125258307054
 10
1.17
 20
0.40531638723133034
 10
1.18
 20
0.4059559471484586
 10
1.19
 20
0.4066310477802505
 10
1.2
 20
0.407341522555727
 10
1.21
 20
0.4080871961758682
 10
1.22
 20
0.4088678846568662
 10
1.23
 20
0.4096833953755199
 10
1.24
 20
0.4105335271167623
 10
1.25
 20
0.411418070123307
 10
1.26
 20
0.41233680614740287
 10
1.27
 20
0.41328950850468327
 10
1.28
 20
0.4142759421300971
 10
1.29
 20
0.41529586363590765
 10
1.3
 20
0.4163490213717448
 10
1.31
 20
0.41743515548669596
 10
1.32
 20
0.4185539979934205
 10
1.33
 20
0.4197052728342714
 10
1.34
 20
0.4208886959494085
 10
1.35
 20
0.42210397534688615
 10
1.3599999999999999
 20
0.42335081117469775
 10
1.37
 20
0.4246288957947595
 10
1.38
 20
0.42593791385881574
 10
1.3900000000000001
 20
0.4272775423862465
 10
1.4
 20
0.4286474508437579
 10
1.4100000000000001
 20
0.43004730122693646
 10
1.42
 20
0.43147674814364645
 10
1.43
 20
0.43293543889925057
 10
1.44
 20
0.43442301358363167
 10
1.45
 20
0.43593910515999534
 10
1.46
 20
0.43748333955543106
 10
1.47
 20
0.43905533575320854
 10
1.48
 20
0.44065470588678823
 10
1.49
 20
0.44228105533552164
 10
1.5
 20
0.4439339828220179
 10
1.51
 20
0.4456130805111529
 10
1.52
 20
0.44731793411069676
 10
1.53
 20
0.449048122973534
 10
1.54
 20
0.45080322020145225
 10
1.55
 20
0.45258279275047253
 10
1.56
 20
0.4543864015376966
 10
1.57
 20
0.4562136015496443
 10
1.58
 20
0.4580639419520536
 10
1.5899999999999999
 20
0.45993696620111735
 10
1.6
 20
0.461832212156129
 10
1.6099999999999999
 20
0.4637492121935082
 10
1.62
 20
0.4656874933221804
 10
1.63
 20
0.46764657730028025
 10
1.6400000000000001
 20
0.46962598075315054
 10
1.65
 20
0.4716252152926077
 10
1.6600000000000001
 20
0.4736437876374443
 10
1.67
 20
0.4756811997351389
 10
1.6800000000000002
 20
0.4777369488847427
 10
1.69
 20
0.47981052786091405
 10
1.7000000000000002
 20
0.4819014250390681
 10
1.71
 20
0.4840091245216127
 10
1.72
 20
0.4861331062652391
 10
1.73
 20
0.4882728462092337
 10
1.74
 20
0.49042781640478295
 10
1.75
 20
0.4925974851452366
 10
1.76
 20
0.49478131709729833
 10
1.77
 20
0.4969787734331115
 10
1.78
 20
0.49918931196320626
 10
1.79
 20
0.5014123872702776
 10
1.8
 20
0.5036474508437578
 10
1.81
 20
0.5058939512151545
 10
1.82
 20
0.5081513340941156
 10
1.83
 20
0.5104190425051941
 10
1.8399999999999999
 20
0.5126965169252717
 10
1.85
 20
0.5149831954216142
 10
1.8599999999999999
 20
0.5172785137905186
 10
1.87
 20
0.5195819056965232
 10
1.88
 20
0.5218928028121412
 10
1.8900000000000001
 20
0.5242106349580886
 10
1.9
 20
0.5265348302439653
 10
1.9100000000000001
 20
0.5288648152093627
 10
1.92
 20
0.5312000149653544
 10
1.9300000000000002
 20
0.5335398533363432
 10
1.94
 20
0.5358837530022228
 10
1.9500000000000002
 20
0.5382311356408233
 10
1.96
 20
0.540581422070603
 10
1.97
 20
0.5429340323935536
 10
1.98
 20
0.5452883861382808
 10
1.99
 20
0.5476439024032269
 10
2.0
 20
0.55
 10
2.01
 20
0.5523560975967731
 10
2.02
 20
0.5547116138617193
 10
2.0300000000000002
 20
0.5570659676064464
 10
2.04
 20
0.559418577929397
 10
2.05
 20
0.5617688643591767
 10
2.06
 20
0.5641162469977772
 10
2.0700000000000003
 20
0.5664601466636568
 10
2.08
 20
0.5687999850346457
 10
2.09
 20
0.5711351847906374
 10
2.1
 20
0.5734651697560347
 10
2.1100000000000003
 20
0.5757893650419115
 10
2.12
 20
0.5781071971878587
 10
2.13
 20
0.5804180943034769
 10
2.14
 20
0.5827214862094814
 10
2.1500000000000004
 20
0.5850168045783859
 10
2.16
 20
0.5873034830747282
 10
2.17
 20
0.5895809574948059
 10
2.1799999999999997
 20
0.5918486659058844
 10
2.19
 20
0.5941060487848456
 10
2.2
 20
0.5963525491562421
 10
2.21
 20
0.5985876127297224
 10
2.2199999999999998
 20
0.6008106880367936
 10
2.23
 20
0.6030212265668886
 10
2.24
 20
0.6052186829027018
 10
2.25
 20
0.6074025148547635
 10
2.26
 20
0.609572183595217
 10
2.27
 20
0.6117271537907663
 10
2.2800000000000002
 20
0.6138668937347609
 10
2.29
 20
0.6159908754783873
 10
2.3
 20
0.618098574960932
 10
2.31
 20
0.620189472139086
 10
2.3200000000000003
 20
0.6222630511152574
 10
2.33
 20
0.6243188002648612
 10
2.34
 20
0.6263562123625557
 10
2.35
 20
0.6283747847073924
 10
2.3600000000000003
 20
0.6303740192468495
 10
2.37
 20
0.6323534226997198
 10
2.38
 20
0.6343125066778196
 10
2.39
 20
0.6362507878064918
 10
2.4000000000000004
 20
0.638167787843871
 10
2.41
 20
0.6400630337988826
 10
2.42
 20
0.6419360580479464
 10
2.4299999999999997
 20
0.6437863984503558
 10
2.44
 20
0.6456135984623035
 10
2.45
 20
0.6474172072495276
 10
2.46
 20
0.6491967797985478
 10
2.4699999999999998
 20
0.650951877026466
 10
2.48
 20
0.6526820658893033
 10
2.49
 20
0.6543869194888472
 10
2.5
 20
0.6560660171779822
 10
2.51
 20
0.6577189446644782
 10
2.52
 20
0.6593452941132116
 10
2.5300000000000002
 20
0.6609446642467915
 10
2.54
 20
0.6625166604445689
 10
2.55
 20
0.6640608948400046
 10
2.56
 20
0.6655769864163683
 10
2.5700000000000003
 20
0.6670645611007495
 10
2.58
 20
0.6685232518563535
 10
2.59
 20
0.6699526987730635
 10
2.6
 20
0.6713525491562422
 10
2.6100000000000003
 20
0.6727224576137536
 10
2.62
 20
0.6740620861411843
 10
2.63
 20
0.6753711042052405
 10
2.64
 20
0.6766491888253023
 10
2.6500000000000004
 20
0.6778960246531138
 10
2.66
 20
0.6791113040505916
 10
2.67
 20
0.6802947271657287
 10
2.6799999999999997
 20
0.6814460020065796
 10
2.69
 20
0.6825648445133041
 10
2.7
 20
0.6836509786282552
 10
2.71
 20
0.6847041363640923
 10
2.7199999999999998
 20
0.6857240578699029
 10
2.73
 20
0.6867104914953168
 10
2.74
 20
0.6876631938525972
 10
2.75
 20
0.6885819298766931
 10
2.76
 20
0.6894664728832377
 10
2.77
 20
0.6903166046244801
 10
2.7800000000000002
 20
0.6911321153431338
 10
2.79
 20
0.6919128038241318
 10
2.8
 20
0.692658477444273
 10
2.81
 20
0.6933689522197495
 10
2.8200000000000003
 20
0.6940440528515415
 10
2.83
 20
0.6946836127686697
 10
2.84
 20
0.6952874741692947
 10
2.85
 20
0.6958554880596515
 10
2.8600000000000003
 20
0.6963875142908121
 10
2.87
 20
0.6968834215932649
 10
2.88
 20
0.6973430876093033
 10
2.89
 20
0.6977663989232161
 10
2.9000000000000004
 20
0.6981532510892707
 10
2.91
 20
0.6985035486574837
 10
2.92
 20
0.6988172051971717
 10
2.9299999999999997
 20
0.6990941433182769
 10
2.94
 20
0.6993342946904619
 10
2.95
 20
0.6995376000599692
 10
2.96
 20
0.6997040092642408
 10
2.9699999999999998
 20
0.6998334812442955
 10
2.98
 20
0.6999259840548597
 10
2.99
 20
0.6999814948722491
 10
3.0
 20
0.7
 10
3.014
 20
0.7
 10
3.028
 20
0.7
 10
3.042
 20
0.7
 10
3.056
 20
0.7
 10
3.07
 20
0.7
 10
3.084
 20
0.7
 10
3.098
 20
0.7
 10
3.112
 20
0.7
 10
3.126
 20
0.7
 10
3.14
 20
0.7
 10
3.154
 20
0.7
 10
3.168
 20
0.7
 10
3.182
 20
0.7
 10
3.196
 20
0.7
 10
3.21
 20
0.7
 10
3.224
 20
0.7
 10
3.238
 20
0.7
 10
3.2520000000000002
 20
0.7
 10
3.266
 20
0.7
 10
3.2800000000000002
 20
0.7
 10
3.294
 20
0.7
 10
3.3080000000000003
 20
0.7
 10
3.322
 20
0.7
 10
3.3360000000000003
 20
0.7
 10
3.35
 20
0.7
 10
3.364
 20
0.7
 10
3.378
 20
0.7
 10
3.3920000000000003
 20
0.7
 10
3.406
 20
0.7
 10
3.42
 20
0.7
 10
3.434
 20
0.7
 10
3.448
 20
0.7
 10
3.462
 20
0.7
 10
3.476
 20
0.7
 10
3.49
 20
0.7
 10
3.504
 20
0.7
 10
3.5180000000000002
 20
0.7
 10
3.532
 20
0.7
 10
3.5460000000000003
 20
0.7
 10
3.56
 20
0.7
 10
3.5740000000000003
 20
0.7
 10
3.588
 20
0.7
 10
3.6020000000000003
 20
0.7
 10
3.616
 20
0.7
 10
3.63
 20
0.7
 10
3.644
 20
0.7
 10
3.6580000000000004
 20
0.7
 10
3.672
 20
0.7
 10
3.686
 20
0.7
 10
3.7
 20
0.7
 10
3.7140000000000004
 20
0.7
 10
3.728
 20
0.7
 10
3.742
 20
0.7
 10
3.7560000000000002
 20
0.7
 10
3.7700000000000005
 20
0.7
 10
3.7840000000000003
 20
0.7
 10
3.798
 20
0.7
 10
3.8120000000000003
 20
0.7
 10
3.826
 20
0.7
 10
3.8400000000000003
 20
0.7
 10
3.854
 20
0.7
 10
3.8680000000000003
 20
0.7
 10
3.882
 20
0.7
 10
3.8960000000000004
 20
0.7
 10
3.91
 20
0.7
 10
3.9240000000000004
 20
0.7
 10
3.938
 20
0.7
 10
3.9520000000000004
 20
0.7
 10
3.966
 20
0.7
 10
3.9800000000000004
 20
0.7
 10
3.994
 20
0.7
 10
4.008
 20
0.7
 10
4.022
 20
0.7
 10
4.0360000000000005
 20
0.7
 10
4.050000000000001
 20
0.7
 10
4.064
 20
0.7
 10
4.078
 20
0.7
 10
4.0920000000000005
 20
0.7
 10
4.106
 20
0.7
 10
4.12
 20
0.7
 10
4.134
 20
0.7
 10
4.148000000000001
 20
0.7
 10
4.162000000000001
 20
0.7
 10
4.176
 20
0.7
 10
4.19
 20
0.7
 10
4.204000000000001
 20
0.7
 10
4.218
 20
0.7
 10
4.232
 20
0.7
 10
4.246
 20
0.7
 10
4.26
 20
0.7
 10
4.274
 20
0.7
 10
4.288
 20
0.7
 10
4.3020000000000005
 20
0.7
 10
4.316000000000001
 20
0.7
 10
4.33
 20
0.7
 10
4.344
 20
0.7
 10
4.3580000000000005
 20
0.7
 10
4.372
 20
0.7
 10
4.386
 20
0.7
 10
4.4
 20
0.7
 10
4.4
 20
1.3
 10
4.386
 20
1.3
 10
4.372
 20
1.3
 10
4.3580000000000005
 20
1.3
 10
4.344
 20
1.3
 10
4.33
 20
1.3
 10
4.316000000000001
 20
1.3
 10
4.3020000000000005
 20
1.3
 10
4.288
 20
1.3
 10
4.274
 20
1.3
 10
4.26
 20
1.3
 10
4.246
 20
1.3
 10
4.232
 20
1.3
 10
4.218
 20
1.3
 10
4.204000000000001
 20
1.3
 10
4.19
 20
1.3
 10
4.176
 20
1.3
 10
4.162000000000001
 20
1.3
 10
4.148000000000001
 20
1.3
 10
4.134
 20
1.3
 10
4.12
 20
1.3
 10
4.106
 20
1.3
 10
4.0920000000000005
 20
1.3
 10
4.078
 20
1.3
 10
4.064
 20
1.3
 10
4.050000000000001
 20
1.3
 10
4.0360000000000005
 20
1.3
 10
4.022
 20
1.3
 10
4.008
 20
1.3
 10
3.994
 20
1.3
 10
3.9800000000000004
 20
1.3
 10
3.966
 20
1.3
 10
3.9520000000000004
 20
1.3
 10
3.938
 20
1.3
 10
3.9240000000000004
 20
1.3
 10
3.91
 20
1.3
 10
3.8960000000000004
 20
1.3
 10
3.882
 20
1.3
 10
3.8680000000000003
 20
1.3
 10
3.854
 20
1.3
 10
3.8400000000000003
 20
1.3
 10
3.826
 20
1.3
 10
3.8120000000000003
 20
1.3
 10
3.798
 20
1.3
 10
3.7840000000000003
 20
1.3
 10
3.7700000000000005
 20
1.3
 10
3.7560000000000002
 20
1.3
 10
3.742
 20
1.3
 10
3.728
 20
1.3
 10
3.7140000000000004
 20
1.3
 10
3.7
 20
1.3
 10
3.686
 20
1.3
 10
3.672
 20
1.3
 10
3.6580000000000004
 20
1.3
 10
3.644
 20
1.3
 10
3.63
 20
1.3
 10
3.616
 20
1.3
 10
3.6020000000000003
 20
1.3
 10
3.588
 20
1.3
 10
3.5740000000000003
 20
1.3
 10
3.56
 20
1.3
 10
3.5460000000000003
 20
1.3
 10
3.532
 20
1.3
 10
3.5180000000000002
 20
1.3
 10
3.504
 20
1.3
 10
3.49
 20
1.3
 10
3.476
 20
1.3
 10
3.462
 20
1.3
 10
3.448
 20
1.3
 10
3.434
 20
1.3
 10
3.42
 20
1.3
 10
3.406
 20
1.3
 10
3.3920000000000003
 20
1.3
 10
3.378
 20
1.3
 10
3.364
 20
1.3
 10
3.35
 20
1.3
 10
3.3360000000000003
 20
1.3
 10
3.322
 20
1.3
 10
3.3080000000000003
 20
1.3
 10
3.294
 20
1.3
 10
3.2800000000000002
 20
1.3
 10
3.266
 20
1.3
 10
3.2520000000000002
 20
1.3
 10
3.238
 20
1.3
 10
3.224
 20
1.3
 10
3.21
 20
1.3
 10
3.196
 20
1.3
 10
3.182
 20
1.3
 10
3.168
 20
1.3
 10
3.154
 20
1.3
 10
3.14
 20
1.3
 10
3.126
 20
1.3
 10
3.112
 20
1.3
 10
3.098
 20
1.3
 10
3.084
 20
1.3
 10
3.07
 20
1.3
 10
3.056
 20
1.3
 10
3.042
 20
1.3
 10
3.028
 20
1.3
 10
3.014
 20
1.3
 10
3.0
 20
1.3
 10
2.99
 20
1.3000185051277509
 10
2.98
 20
1.3000740159451403
 10
2.9699999999999998
 20
1.3001665187557045
 10
2.96
 20
1.3002959907357592
 10
2.95
 20
1.3004623999400309
 10
2.94
 20
1.300665705309538
 10
2.9299999999999997
 20
1.300905856681723
 10
2.92
 20
1.3011827948028283
 10
2.91
 20
1.3014964513425165
 10
2.9000000000000004
 20
1.3018467489107293
 10
2.89
 20
1.3022336010767839
 10
2.88
 20
1.3026569123906966
 10
2.87
 20
1.3031165784067351
 10
2.8600000000000003
 20
1.3036124857091878
 10
2.85
 20
1.3041445119403485
 10
2.84
 20
1.3047125258307053
 10
2.83
 20
1.3053163872313303
 10
2.8200000000000003
 20
1.3059559471484585
 10
2.81
 20
1.3066310477802505
 10
2.8
 20
1.307341522555727
 10
2.79
 20
1.3080871961758682
 10
2.7800000000000002
 20
1.3088678846568662
 10
2.77
 20
1.30968339537552
 10
2.76
 20
1.3105335271167622
 10
2.75
 20
1.311418070123307
 10
2.74
 20
1.3123368061474028
 10
2.73
 20
1.3132895085046832
 10
2.7199999999999998
 20
1.3142759421300971
 10
2.71
 20
1.3152958636359076
 10
2.7
 20
1.3163490213717448
 10
2.69
 20
1.3174351554866959
 10
2.6799999999999997
 20
1.3185539979934204
 10
2.67
 20
1.3197052728342713
 10
2.66
 20
1.3208886959494084
 10
2.6500000000000004
 20
1.3221039753468862
 10
2.64
 20
1.3233508111746977
 10
2.63
 20
1.3246288957947594
 10
2.62
 20
1.3259379138588157
 10
2.6100000000000003
 20
1.3272775423862464
 10
2.6
 20
1.3286474508437578
 10
2.59
 20
1.3300473012269365
 10
2.58
 20
1.3314767481436465
 10
2.5700000000000003
 20
1.3329354388992505
 10
2.56
 20
1.3344230135836317
 10
2.55
 20
1.3359391051599954
 10
2.54
 20
1.337483339555431
 10
2.5300000000000002
 20
1.3390553357532085
 10
2.52
 20
1.3406547058867884
 10
2.51
 20
1.3422810553355218
 10
2.5
 20
1.3439339828220178
 10
2.49
 20
1.3456130805111528
 10
2.48
 20
1.3473179341106967
 10
2.4699999999999998
 20
1.349048122973534
 10
2.46
 20
1.3508032202014522
 10
2.45
 20
1.3525827927504723
 10
2.44
 20
1.3543864015376965
 10
2.4299999999999997
 20
1.3562136015496442
 10
2.42
 20
1.3580639419520537
 10
2.41
 20
1.3599369662011174
 10
2.4000000000000004
 20
1.361832212156129
 10
2.39
 20
1.3637492121935082
 10
2.38
 20
1.3656874933221803
 10
2.37
 20
1.3676465773002802
 10
2.3600000000000003
 20
1.3696259807531503
 10
2.35
 20
1.3716252152926076
 10
2.34
 20
1.3736437876374443
 10
2.33
 20
1.3756811997351388
 10
2.3200000000000003
 20
1.3777369488847426
 10
2.31
 20
1.379810527860914
 10
2.3
 20
1.381901425039068
 10
2.29
 20
1.3840091245216128
 10
2.2800000000000002
 20
1.3861331062652391
 10
2.27
 20
1.3882728462092337
 10
2.26
 20
1.390427816404783
 10
2.25
 20
1.3925974851452365
 10
2.24
 20
1.3947813170972982
 10
2.23
 20
1.3969787734331114
 10
2.2199999999999998
 20
1.3991893119632064
 10
2.21
 20
1.4014123872702777
 10
2.2
 20
1.4036474508437577
 10
2.19
 20
1.4058939512151545
 10
2.1799999999999997
 20
1.4081513340941156
 10
2.17
 20
1.4104190425051941
 10
2.16
 20
1.4126965169252719
 10
2.1500000000000004
 20
1.414983195421614
 10
2.14
 20
1.4172785137905186
 10
2.13
 20
1.419581905696523
 10
2.12
 20
1.4218928028121414
 10
2.1100000000000003
 20
1.4242106349580885
 10
2.1
 20
1.4265348302439653
 10
2.09
 20
1.4288648152093626
 10
2.08
 20
1.4312000149653543
 10
2.0700000000000003
 20
1.433539853336343
 10
2.06
 20
1.4358837530022228
 10
2.05
 20
1.4382311356408233
 10
2.04
 20
1.440581422070603
 10
2.0300000000000002
 20
1.4429340323935536
 10
2.02
 20
1.4452883861382806
 10
2.01
 20
1.447643902403227
 10
2.0
 20
1.45
 10
1.99
 20
1.452356097596773
 10
1.98
 20
1.4547116138617193
 10
1.97
 20
1.4570659676064464
 10
1.96
 20
1.459418577929397
 10
1.9500000000000002
 20
1.4617688643591769
 10
1.94
 20
1.464116246997777
 10
1.9300000000000002
 20
1.4664601466636569
 10
1.92
 20
1.4687999850346456
 10
1.9100000000000001
 20
1.4711351847906373
 10
1.9
 20
1.4734651697560346
 10
1.8900000000000001
 20
1.4757893650419114
 10
1.88
 20
1.4781071971878588
 10
1.87
 20
1.4804180943034768
 10
1.8599999999999999
 20
1.4827214862094813
 10
1.85
 20
1.4850168045783858
 10
1.8399999999999999
 20
1.4873034830747283
 10
1.83
 20
1.4895809574948058
 10
1.82
 20
1.4918486659058843
 10
1.81
 20
1.4941060487848454
 10
1.8
 20
1.4963525491562422
 10
1.79
 20
1.4985876127297224
 10
1.78
 20
1.5008106880367937
 10
1.77
 20
1.5030212265668885
 10
1.76
 20
1.5052186829027017
 10
1.75
 20
1.5074025148547634
 10
1.74
 20
1.5095721835952172
 10
1.73
 20
1.5117271537907664
 10
1.72
 20
1.513866893734761
 10
1.71
 20
1.5159908754783873
 10
1.7000000000000002
 20
1.518098574960932
 10
1.69
 20
1.5201894721390858
 10
1.6800000000000002
 20
1.5222630511152573
 10
1.67
 20
1.524318800264861
 10
1.6600000000000001
 20
1.5263562123625558
 10
1.65
 20
1.5283747847073923
 10
1.6400000000000001
 20
1.5303740192468496
 10
1.63
 20
1.5323534226997197
 10
1.62
 20
1.5343125066778196
 10
1.6099999999999999
 20
1.536250787806492
 10
1.6
 20
1.538167787843871
 10
1.5899999999999999
 20
1.5400630337988828
 10
1.58
 20
1.5419360580479464
 10
1.57
 20
1.5437863984503557
 10
1.56
 20
1.5456135984623034
 10
1.55
 20
1.5474172072495276
 10
1.54
 20
1.5491967797985478
 10
1.53
 20
1.550951877026466
 10
1.52
 20
1.5526820658893032
 10
1.51
 20
1.554386919488847
 10
1.5
 20
1.556066017177982
 10
1.49
 20
1.5577189446644784
 10
1.48
 20
1.5593452941132118
 10
1.47
 20
1.5609446642467915
 10
1.46
 20
1.5625166604445688
 10
1.45
 20
1.5640608948400048
 10
1.44
 20
1.5655769864163682
 10
1.43
 20
1.5670645611007494
 10
1.42
 20
1.5685232518563534
 10
1.4100000000000001
 20
1.5699526987730636
 10
1.4
 20
1.5713525491562421
 10
1.3900000000000001
 20
1.5727224576137535
 10
1.38
 20
1.5740620861411843
 10
1.37
 20
1.5753711042052405
 10
1.3599999999999999
 20
1.5766491888253023
 10
1.35
 20
1.5778960246531137
 10
1.34
 20
1.5791113040505915
 10
1.33
 20
1.5802947271657286
 10
1.32
 20
1.5814460020065795
 10
1.31
 20
1.582564844513304
 10
1.3
 20
1.5836509786282553
 10
1.29
 20
1.5847041363640924
 10
1.28
 20
1.585724057869903
 10
1.27
 20
1.5867104914953167
 10
1.26
 20
1.5876631938525971
 10
1.25
 20
1.588581929876693
 10
1.24
 20
1.5894664728832377
 10
1.23
 20
1.59031660462448
 10
1.22
 20
1.5911321153431337
 10
1.21
 20
1.591912803824132
 10
1.2
 20
1.5926584774442731
 10
1.19
 20
1.5933689522197496
 10
1.18
 20
1.5940440528515414
 10
1.17
 20
1.5946836127686697
 10
1.16
 20
1.5952874741692946
 10
1.15
 20
1.5958554880596516
 10
1.1400000000000001
 20
1.5963875142908122
 10
1.13
 20
1.5968834215932648
 10
1.12
 20
1.5973430876093033
 10
1.11
 20
1.597766398923216
 10
1.1
 20
1.5981532510892706
 10
1.09
 20
1.5985035486574835
 10
1.08
 20
1.5988172051971716
 10
1.07
 20
1.5990941433182768
 10
1.06
 20
1.599334294690462
 10
1.05
 20
1.599537600059969
 10
1.04
 20
1.5997040092642407
 10
1.03
 20
1.5998334812442954
 10
1.02
 20
1.5999259840548596
 10
1.01
 20
1.599981494872249
 10
1.0
 20
1.6
 10
0.9859999999999999
 20
1.6
 10
0.9719999999999999
 20
1.6
 10
0.9579999999999999
 20
1.6
 10
0.9439999999999998
 20
1.6
 10
0.9299999999999998
 20
1.6
 10
0.9159999999999998
 20
1.6
 10
0.9019999999999998
 20
1.6
 10
0.8879999999999998
 20
1.6
 10
0.8739999999999998
 20
1.6
 10
0.8599999999999998
 20
1.6
 10
0.8459999999999998
 20
1.6
 10
0.8319999999999997
 20
1.6
 10
0.818
 20
1.6
 10
0.8039999999999999
 20
1.6
 10
0.7899999999999999
 20
1.6
 10
0.7759999999999999
 20
1.6
 10
0.7619999999999999
 20
1.6
 10
0.7479999999999999
 20
1.6
 10
0.7339999999999999
 20
1.6
 10
0.7199999999999999
 20
1.6
 10
0.7059999999999998
 20
1.6
 10
0.6919999999999998
 20
1.6
 10
0.6779999999999998
 20
1.6
 10
0.6639999999999998
 20
1.6
 10
0.6499999999999998
 20
1.6
 10
0.6359999999999998
 20
1.6
 10
0.6219999999999998
 20
1.6
 10
0.608
 20
1.6
 10
0.5939999999999999
 20
1.6
 10
0.5799999999999998
 20
1.6
 10
0.5659999999999998
 20
1.6
 10
0.5519999999999999
 20
1.6
 10
0.5379999999999999
 20
1.6
 10
0.5239999999999999
 20
1.6
 10
0.5099999999999999
 20
1.6
 10
0.4959999999999999
 20
1.6
 10
0.4819999999999999
 20
1.6
 10
0.46799999999999986
 20
1.6
 10
0.45399999999999985
 20
1.6
 10
0.43999999999999984
 20
1.6
 10
0.42599999999999993
 20
1.6
 10
0.4119999999999999
 20
1.6
 10
0.3979999999999999
 20
1.6
 10
0.3839999999999999
 20
1.6
 10
0.3699999999999999
 20
1.6
 10
0.35599999999999987
 20
1.6
 10
0.34199999999999986
 20
1.6
 10
0.32799999999999996
 20
1.6
 10
0.31399999999999995
 20
1.6
 10
0.29999999999999993
 20
1.6
 10
0.2859999999999999
 20
1.6
 10
0.2719999999999999
 20
1.6
 10
0.2579999999999999
 20
1.6
 10
0.24399999999999988
 20
1.6
 10
0.22999999999999987
 20
1.6
 10
0.21599999999999986
 20
1.6
 10
0.20199999999999996
 20
1.6
 10
0.18799999999999994
 20
1.6
 10
0.17399999999999993
 20
1.6
 10
0.15999999999999992
 20
1.6
 10
0.1459999999999999
 20
1.6
 10
0.1319999999999999
 20
1.6
 10
0.11799999999999988
 20
1.6
 10
0.10399999999999998
 20
1.6
 10
0.08999999999999991
 20
1.6
 10
0.07599999999999996
 20
1.6
 10
0.061999999999999944
 20
1.6
 10
0.04799999999999993
 20
1.6
 10
0.03399999999999992
 20
1.6
 10
0.019999999999999907
 20
1.6
 10
0.00599999999999995
 20
1.6
 10
-0.008000000000000063
 20
1.6
 10
-0.022000000000000075
 20
1.6
 10
-0.03600000000000003
 20
1.6
 10
-0.050000000000000044
 20
1.6
 10
-0.06400000000000006
 20
1.6
 10
-0.07800000000000007
 20
1.6
 10
-0.09200000000000008
 20
1.6
 10
-0.10600000000000004
 20
1.6
 10
-0.12000000000000005
 20
1.6
 10
-0.13400000000000006
 20
1.6
 10
-0.14800000000000002
 20
1.6
 10
-0.16200000000000003
 20
1.6
 10
-0.17600000000000005
 20
1.6
 10
-0.19000000000000006
 20
1.6
 10
-0.20400000000000004
 20
1.6
 10
-0.21800000000000003
 20
1.6
 10
-0.23200000000000004
 20
1.6
 10
-0.24600000000000005
 20
1.6
 10
-0.26
 20
1.6
 10
-0.274
 20
1.6
 10
-0.28800000000000003
 20
1.6
 10
-0.30200000000000005
 20
1.6
 10
-0.31600000000000006
 20
1.6
 10
-0.33
 20
1.6
 10
-0.34400000000000003
 20
1.6
 10
-0.35800000000000004
 20
1.6
 10
-0.372
 20
1.6
 10
-0.386
 20
1.6
  0
ENDSEC
  0
SECTION
  2
OBJECTS
  0
DICTIONARY
  5
A
330
0
100
AcDbDictionary
281
1
  3
ACAD_COLOR
350
B
  3
ACAD_GROUP
350
C
  3
ACAD_LAYOUT
350
D
  3
ACAD_MATERIAL
350
E
  3
ACAD_MLEADERSTYLE
350
F
  3
ACAD_MLINESTYLE
350
10
  3
ACAD_PLOTSETTINGS
350
11
  3
ACAD_PLOTSTYLENAME
350
12
  3
ACAD_SCALELIST
350
14
  3
ACAD_TABLESTYLE
350
15
  3
ACAD_VISUALSTYLE
350
16
  3
EZDXF_META
350
2D
  0
DICTIONARY
  5
B
330
A
100
AcDbDictionary
281
1
  0
DICTIONARY
  5
C
330
A
100
AcDbDictionary
281
1
  0
DICTIONARY
  5
D
330
A
100
AcDbDictionary
281
1
  3
Model
350
1A
  3
Layout1
350
1E
  0
DICTIONARY
  5
E
330
A
100
AcDbDictionary
281
1
  3
ByBlock
350
1F
  3
ByLayer
350
20
  3
Global
350
21
  0
DICTIONARY
  5
F
330
A
100
AcDbDictionary
281
1
  3
Standard
350
2C
  0
DICTIONARY
  5
10
330
A
100
AcDbDictionary
281
1
  3
Standard
350
22
  0
DICTIONARY
  5
11
330
A
100
AcDbDictionary
281
1
  0
ACDBDICTIONARYWDFLT
  5
12
330
A
100
AcDbDictionary
281
1
  3
Normal
350
13
100
AcDbDictionaryWithDefault
340
13
  0
ACDBPLACEHOLDER
  5
13
330
12
  0
DICTIONARY
  5
14
330
A
100
AcDbDictionary
281
1
  0
DICTIONARY
  5
15
330
A
100
AcDbDictionary
281
1
  0
DICTIONARY
  5
16
330
A
100
AcDbDictionary
281
1
  0
LAYOUT
  5
1A
330
D
100
AcDbPlotSettings
  1

  4
A3
  6

 40
7.5
 41
20.0
 42
7.5
 43
20.0
 44
420.0
 45
297.0
 46
0.0
 47
0.0
 48
0.0
 49
0.0
140
0.0
141
0.0
142
1.0
143
1.0
 70
1024
 72
1
 73
0
 74
5
  7

 75
16
 76
0
 77
2
 78
300
147
1.0
148
0.0
149
0.0
100
AcDbLayout
  1
Model
 70
1
 71
0
 10
0.0
 20
0.0
 11
420.0
 21
297.0
 12
0.0
 22
0.0
 32
0.0
 14
1e+20
 24
1e+20
 34
1e+20
 15
-1e+20
 25
-1e+20
 35
-1e+20
146
0.0
 13
0.0
 23
0.0
 33
0.0
 16
1.0
 26
0.0
 36
0.0
 17
0.0
 27
1.0
 37
0.0
 76
1
330
17
  0
LAYOUT
  5
1E
330
D
100
AcDbPlotSettings
  1

  4
A3
  6

 40
7.5
 41
20.0
 42
7.5
 43
20.0
 44
420.0
 45
297.0
 46
0.0
 47
0.0
 48
0.0
 49
0.0
140
0.0
141
0.0
142
1.0
143
1.0
 70
0
 72
1
 73
0
 74
5
  7

 75
16
 76
0
 77
2
 78
300
147
1.0
148
0.0
149
0.0
100
AcDbLayout
  1
Layout1
 70
1
 71
1
 10
0.0
 20
0.0
 11
420.0
 21
297.0
 12
0.0
 22
0.0
 32
0.0
 14
1e+20
 24
1e+20
 34
1e+20
 15
-1e+20
 25
-1e+20
 35
-1e+20
146
0.0
 13
0.0
 23
0.0
 33
0.0
 16
1.0
 26
0.0
 36
0.0
 17
0.0
 27
1.0
 37
0.0
 76
1
330
1B
  0
MATERIAL
  5
1F
102
{ACAD_REACTORS
330
E
102
}
330
E
100
AcDbMaterial
  1
ByBlock
  2

 70
0
 40
1.0
 71
1
 41
1.0
 91
-1023410177
 42
1.0
 72
1
  3

 73
1
 74
1
 75
1
 44
0.5
 73
0
 45
1.0
 46
1.0
 77
1
  4

 78
1
 79
1
170
1
 48
1.0
171
1
  6

172
1
173
1
174
1
140
1.0
141
1.0
175
1
  7

176
1
177
1
178
1
143
1.0
179
1
  8

270
1
271
1
272
1
145
1.0
146
1.0
273
1
  9

274
1
275
1
276
1
 42
1.0
 72
1
  3

 73
1
 74
1
 75
1
 94
63
  0
MATERIAL
  5
20
102
{ACAD_REACTORS
330
E
102
}
330
E
100
AcDbMaterial
  1
ByLayer
  2

 70
0
 40
1.0
 71
1
 41
1.0
 91
-1023410177
 42
1.0
 72
1
  3

 73
1
 74
1
 75
1
 44
0.5
 73
0
 45
1.0
 46
1.0
 77
1
  4

 78
1
 79
1
170
1
 48
1.0
171
1
  6

172
1
173
1
174
1
140
1.0
141
1.0
175
1
  7

176
1
177
1
178
1
143
1.0
179
1
  8

270
1
271
1
272
1
145
1.0
146
1.0
273
1
  9

274
1
275
1
276
1
 42
1.0
 72
1
  3

 73
1
 74
1
 75
1
 94
63
  0
MATERIAL
  5
21
102
{ACAD_REACTORS
330
E
102
}
330
E
100
AcDbMaterial
  1
Global
  2

 70
0
 40
1.0
 71
1
 41
1.0
 91
-1023410177
 42
1.0
 72
1
  3

 73
1
 74
1
 75
1
 44
0.5
 73
0
 45
1.0
 46
1.0
 77
1
  4

 78
1
 79
1
170
1
 48
1.0
171
1
  6

172
1
173
1
174
1
140
1.0
141
1.0
175
1
  7

176
1
177
1
178
1
143
1.0
179
1
  8

270
1
271
1
272
1
145
1.0
146
1.0
273
1
  9

274
1
275
1
276
1
 42
1.0
 72
1
  3

 73
1
 74
1
 75
1
 94
63
  0
MLINESTYLE
  5
22
102
{ACAD_REACTORS
330
10
102
}
330
10
100
AcDbMlineStyle
  2
Standard
 70
0
  3

 62
256
 51
90.0
 52
90.0
 71
2
 49
0.5
 62
256
  6
BYLAYER
 49
-0.5
 62
256
  6
BYLAYER
  0
MLEADERSTYLE
  5
2C
102
{ACAD_REACTORS
330
F
102
}
330
F
100
AcDbMLeaderStyle
179
2
170
2
171
1
172
0
 90
2
 40
0.0
 41
0.0
173
1
 91
-1056964608
 92
-2
290
1
 42
2.0
291
1
 43
8.0
  3
Standard
 44
4.0
300

342
29
174
1
175
1
176
0
178
1
 93
-1056964608
 45
4.0
292
0
297
0
 46
4.0
 94
-1056964608
 47
1.0
 49
1.0
140
1.0
294
1
141
0.0
177
0
142
1.0
295
0
296
0
143
3.75
271
0
272
9
273
9
  0
DICTIONARY
  5
2D
330
A
100
AcDbDictionary
280
1
281
1
  3
CREATED_BY_EZDXF
350
2E
  3
WRITTEN_BY_EZDXF
350
32
  0
DICTIONARYVAR
  5
2E
330
2D
100
DictionaryVariables
280
0
  1
1.4.4 @ 2026-09-01T01:16:51.817710+00:00
  0
DICTIONARYVAR
  5
32
330
2D
100
DictionaryVariables
280
0
  1
1.4.4 @ 2026-09-01T01:16:51.822640+00:00
  0
ENDSEC
  0
EOF
